<?xml version="1.0" encoding="UTF-8" standalone="no"?>
<!DOCTYPE svg PUBLIC "-//W3C//DTD SVG 1.1//EN"
 "http://www.w3.org/Graphics/SVG/1.1/DTD/svg11.dtd">
<!-- Generated by graphviz version 5.0.1 (20220820.1526)
 -->
<!-- Pages: 1 -->
<svg width="2355pt" height="548pt"
 viewBox="0.00 0.00 2354.68 548.00" xmlns="http://www.w3.org/2000/svg" xmlns:xlink="http://www.w3.org/1999/xlink">
<g id="graph0" class="graph" transform="scale(1 1) rotate(0) translate(4 544)">
<polygon fill="white" stroke="none" points="-4,4 -4,-544 2350.68,-544 2350.68,4 -4,4"/>
<!-- [root] data.digitalocean_ssh_key.ssh_key (expand) -->
<g id="node1" class="node">
<title>[root] data.digitalocean_ssh_key.ssh_key (expand)</title>
<polygon fill="none" stroke="black" points="1137.5,-180 925.5,-180 925.5,-144 1137.5,-144 1137.5,-180"/>
<text text-anchor="middle" x="1031.5" y="-158.3" font-family="Times New Roman,serif" font-size="14.00">data.digitalocean_ssh_key.ssh_key</text>
</g>
<!-- [root] provider[&quot;registry.terraform.io/digitalocean/digitalocean&quot;] -->
<g id="node11" class="node">
<title>[root] provider[&quot;registry.terraform.io/digitalocean/digitalocean&quot;]</title>
<polygon fill="none" stroke="black" points="1137.5,-108 829.66,-90 1137.5,-72 1445.34,-90 1137.5,-108"/>
<text text-anchor="middle" x="1137.5" y="-86.3" font-family="Times New Roman,serif" font-size="14.00">provider[&quot;registry.terraform.io/digitalocean/digitalocean&quot;]</text>
</g>
<!-- [root] data.digitalocean_ssh_key.ssh_key (expand)&#45;&gt;[root] provider[&quot;registry.terraform.io/digitalocean/digitalocean&quot;] -->
<g id="edge1" class="edge">
<title>[root] data.digitalocean_ssh_key.ssh_key (expand)&#45;&gt;[root] provider[&quot;registry.terraform.io/digitalocean/digitalocean&quot;]</title>
<path fill="none" stroke="black" d="M1057.43,-143.88C1071.78,-134.4 1089.74,-122.54 1105.01,-112.45"/>
<polygon fill="black" stroke="black" points="1107.23,-115.18 1113.65,-106.75 1103.38,-109.34 1107.23,-115.18"/>
</g>
<!-- [root] digitalocean_database_cluster.postgres&#45;desafio03 (expand) -->
<g id="node2" class="node">
<title>[root] digitalocean_database_cluster.postgres&#45;desafio03 (expand)</title>
<polygon fill="none" stroke="black" points="673,-252 380,-252 380,-216 673,-216 673,-252"/>
<text text-anchor="middle" x="526.5" y="-230.3" font-family="Times New Roman,serif" font-size="14.00">digitalocean_database_cluster.postgres&#45;desafio03</text>
</g>
<!-- [root] digitalocean_vpc.vpc_desafio_03 (expand) -->
<g id="node10" class="node">
<title>[root] digitalocean_vpc.vpc_desafio_03 (expand)</title>
<polygon fill="none" stroke="black" points="907,-180 702,-180 702,-144 907,-144 907,-180"/>
<text text-anchor="middle" x="804.5" y="-158.3" font-family="Times New Roman,serif" font-size="14.00">digitalocean_vpc.vpc_desafio_03</text>
</g>
<!-- [root] digitalocean_database_cluster.postgres&#45;desafio03 (expand)&#45;&gt;[root] digitalocean_vpc.vpc_desafio_03 (expand) -->
<g id="edge2" class="edge">
<title>[root] digitalocean_database_cluster.postgres&#45;desafio03 (expand)&#45;&gt;[root] digitalocean_vpc.vpc_desafio_03 (expand)</title>
<path fill="none" stroke="black" d="M594.15,-215.97C634.18,-205.89 685.03,-193.08 726.71,-182.59"/>
<polygon fill="black" stroke="black" points="727.7,-185.95 736.55,-180.11 725.99,-179.16 727.7,-185.95"/>
</g>
<!-- [root] var.pg_db_cluster_engine -->
<g id="node21" class="node">
<title>[root] var.pg_db_cluster_engine</title>
<polygon fill="none" stroke="black" points="340,-180 185,-180 185,-144 346,-144 346,-174 340,-180"/>
<polyline fill="none" stroke="black" points="340,-180 340,-174"/>
<polyline fill="none" stroke="black" points="346,-174 340,-174"/>
<text text-anchor="middle" x="265.5" y="-158.3" font-family="Times New Roman,serif" font-size="14.00">var.pg_db_cluster_engine</text>
</g>
<!-- [root] digitalocean_database_cluster.postgres&#45;desafio03 (expand)&#45;&gt;[root] var.pg_db_cluster_engine -->
<g id="edge3" class="edge">
<title>[root] digitalocean_database_cluster.postgres&#45;desafio03 (expand)&#45;&gt;[root] var.pg_db_cluster_engine</title>
<path fill="none" stroke="black" d="M462.99,-215.97C425.57,-205.93 378.07,-193.19 339.03,-182.72"/>
<polygon fill="black" stroke="black" points="339.86,-179.32 329.3,-180.11 338.05,-186.08 339.86,-179.32"/>
</g>
<!-- [root] var.pg_db_cluster_name -->
<g id="node22" class="node">
<title>[root] var.pg_db_cluster_name</title>
<polygon fill="none" stroke="black" points="513,-180 364,-180 364,-144 519,-144 519,-174 513,-180"/>
<polyline fill="none" stroke="black" points="513,-180 513,-174"/>
<polyline fill="none" stroke="black" points="519,-174 513,-174"/>
<text text-anchor="middle" x="441.5" y="-158.3" font-family="Times New Roman,serif" font-size="14.00">var.pg_db_cluster_name</text>
</g>
<!-- [root] digitalocean_database_cluster.postgres&#45;desafio03 (expand)&#45;&gt;[root] var.pg_db_cluster_name -->
<g id="edge4" class="edge">
<title>[root] digitalocean_database_cluster.postgres&#45;desafio03 (expand)&#45;&gt;[root] var.pg_db_cluster_name</title>
<path fill="none" stroke="black" d="M505.49,-215.7C494.78,-206.88 481.61,-196.03 470,-186.47"/>
<polygon fill="black" stroke="black" points="472.21,-183.76 462.27,-180.1 467.76,-189.16 472.21,-183.76"/>
</g>
<!-- [root] var.pg_db_cluster_size -->
<g id="node24" class="node">
<title>[root] var.pg_db_cluster_size</title>
<polygon fill="none" stroke="black" points="678,-180 537,-180 537,-144 684,-144 684,-174 678,-180"/>
<polyline fill="none" stroke="black" points="678,-180 678,-174"/>
<polyline fill="none" stroke="black" points="684,-174 678,-174"/>
<text text-anchor="middle" x="610.5" y="-158.3" font-family="Times New Roman,serif" font-size="14.00">var.pg_db_cluster_size</text>
</g>
<!-- [root] digitalocean_database_cluster.postgres&#45;desafio03 (expand)&#45;&gt;[root] var.pg_db_cluster_size -->
<g id="edge5" class="edge">
<title>[root] digitalocean_database_cluster.postgres&#45;desafio03 (expand)&#45;&gt;[root] var.pg_db_cluster_size</title>
<path fill="none" stroke="black" d="M547.26,-215.7C557.74,-206.97 570.61,-196.24 582,-186.75"/>
<polygon fill="black" stroke="black" points="584.53,-189.19 589.97,-180.1 580.05,-183.82 584.53,-189.19"/>
</g>
<!-- [root] var.pg_db_cluster_version -->
<g id="node25" class="node">
<title>[root] var.pg_db_cluster_version</title>
<polygon fill="none" stroke="black" points="161,-180 0,-180 0,-144 167,-144 167,-174 161,-180"/>
<polyline fill="none" stroke="black" points="161,-180 161,-174"/>
<polyline fill="none" stroke="black" points="167,-174 161,-174"/>
<text text-anchor="middle" x="83.5" y="-158.3" font-family="Times New Roman,serif" font-size="14.00">var.pg_db_cluster_version</text>
</g>
<!-- [root] digitalocean_database_cluster.postgres&#45;desafio03 (expand)&#45;&gt;[root] var.pg_db_cluster_version -->
<g id="edge6" class="edge">
<title>[root] digitalocean_database_cluster.postgres&#45;desafio03 (expand)&#45;&gt;[root] var.pg_db_cluster_version</title>
<path fill="none" stroke="black" d="M407.34,-216C341.99,-206.44 259.29,-193.95 177.22,-180.26"/>
<polygon fill="black" stroke="black" points="177.66,-176.79 167.22,-178.59 176.5,-183.69 177.66,-176.79"/>
</g>
<!-- [root] digitalocean_database_firewall.database&#45;fw (expand) -->
<g id="node3" class="node">
<title>[root] digitalocean_database_firewall.database&#45;fw (expand)</title>
<polygon fill="none" stroke="black" points="1074,-324 817,-324 817,-288 1074,-288 1074,-324"/>
<text text-anchor="middle" x="945.5" y="-302.3" font-family="Times New Roman,serif" font-size="14.00">digitalocean_database_firewall.database&#45;fw</text>
</g>
<!-- [root] digitalocean_database_firewall.database&#45;fw (expand)&#45;&gt;[root] digitalocean_database_cluster.postgres&#45;desafio03 (expand) -->
<g id="edge7" class="edge">
<title>[root] digitalocean_database_firewall.database&#45;fw (expand)&#45;&gt;[root] digitalocean_database_cluster.postgres&#45;desafio03 (expand)</title>
<path fill="none" stroke="black" d="M843.54,-287.97C781.57,-277.61 702.38,-264.38 638.65,-253.74"/>
<polygon fill="black" stroke="black" points="639,-250.25 628.56,-252.05 637.84,-257.15 639,-250.25"/>
</g>
<!-- [root] digitalocean_droplet.vm&#45;02_desafio03 (expand) -->
<g id="node5" class="node">
<title>[root] digitalocean_droplet.vm&#45;02_desafio03 (expand)</title>
<polygon fill="none" stroke="black" points="1125.5,-252 895.5,-252 895.5,-216 1125.5,-216 1125.5,-252"/>
<text text-anchor="middle" x="1010.5" y="-230.3" font-family="Times New Roman,serif" font-size="14.00">digitalocean_droplet.vm&#45;02_desafio03</text>
</g>
<!-- [root] digitalocean_database_firewall.database&#45;fw (expand)&#45;&gt;[root] digitalocean_droplet.vm&#45;02_desafio03 (expand) -->
<g id="edge8" class="edge">
<title>[root] digitalocean_database_firewall.database&#45;fw (expand)&#45;&gt;[root] digitalocean_droplet.vm&#45;02_desafio03 (expand)</title>
<path fill="none" stroke="black" d="M961.57,-287.7C969.44,-279.22 979.06,-268.86 987.67,-259.58"/>
<polygon fill="black" stroke="black" points="990.38,-261.81 994.62,-252.1 985.25,-257.05 990.38,-261.81"/>
</g>
<!-- [root] digitalocean_droplet.vm&#45;01_desafio03 (expand) -->
<g id="node4" class="node">
<title>[root] digitalocean_droplet.vm&#45;01_desafio03 (expand)</title>
<polygon fill="none" stroke="black" points="1558.5,-252 1328.5,-252 1328.5,-216 1558.5,-216 1558.5,-252"/>
<text text-anchor="middle" x="1443.5" y="-230.3" font-family="Times New Roman,serif" font-size="14.00">digitalocean_droplet.vm&#45;01_desafio03</text>
</g>
<!-- [root] digitalocean_droplet.vm&#45;01_desafio03 (expand)&#45;&gt;[root] data.digitalocean_ssh_key.ssh_key (expand) -->
<g id="edge9" class="edge">
<title>[root] digitalocean_droplet.vm&#45;01_desafio03 (expand)&#45;&gt;[root] data.digitalocean_ssh_key.ssh_key (expand)</title>
<path fill="none" stroke="black" d="M1343.24,-215.97C1282.31,-205.61 1204.44,-192.38 1141.77,-181.74"/>
<polygon fill="black" stroke="black" points="1142.3,-178.27 1131.85,-180.05 1141.12,-185.18 1142.3,-178.27"/>
</g>
<!-- [root] digitalocean_droplet.vm&#45;01_desafio03 (expand)&#45;&gt;[root] digitalocean_vpc.vpc_desafio_03 (expand) -->
<g id="edge10" class="edge">
<title>[root] digitalocean_droplet.vm&#45;01_desafio03 (expand)&#45;&gt;[root] digitalocean_vpc.vpc_desafio_03 (expand)</title>
<path fill="none" stroke="black" d="M1328.37,-219.26C1318.27,-218.13 1308.2,-217.03 1298.5,-216 1132.14,-198.41 1087.45,-200.71 917.07,-180.03"/>
<polygon fill="black" stroke="black" points="917.36,-176.54 907.01,-178.8 916.51,-183.48 917.36,-176.54"/>
</g>
<!-- [root] var.droplet_image -->
<g id="node18" class="node">
<title>[root] var.droplet_image</title>
<polygon fill="none" stroke="black" points="1496,-180 1385,-180 1385,-144 1502,-144 1502,-174 1496,-180"/>
<polyline fill="none" stroke="black" points="1496,-180 1496,-174"/>
<polyline fill="none" stroke="black" points="1502,-174 1496,-174"/>
<text text-anchor="middle" x="1443.5" y="-158.3" font-family="Times New Roman,serif" font-size="14.00">var.droplet_image</text>
</g>
<!-- [root] digitalocean_droplet.vm&#45;01_desafio03 (expand)&#45;&gt;[root] var.droplet_image -->
<g id="edge12" class="edge">
<title>[root] digitalocean_droplet.vm&#45;01_desafio03 (expand)&#45;&gt;[root] var.droplet_image</title>
<path fill="none" stroke="black" d="M1443.5,-215.7C1443.5,-207.98 1443.5,-198.71 1443.5,-190.11"/>
<polygon fill="black" stroke="black" points="1447,-190.1 1443.5,-180.1 1440,-190.1 1447,-190.1"/>
</g>
<!-- [root] var.droplet_name -->
<g id="node19" class="node">
<title>[root] var.droplet_name</title>
<polygon fill="none" stroke="black" points="1628.5,-180 1520.5,-180 1520.5,-144 1634.5,-144 1634.5,-174 1628.5,-180"/>
<polyline fill="none" stroke="black" points="1628.5,-180 1628.5,-174"/>
<polyline fill="none" stroke="black" points="1634.5,-174 1628.5,-174"/>
<text text-anchor="middle" x="1577.5" y="-158.3" font-family="Times New Roman,serif" font-size="14.00">var.droplet_name</text>
</g>
<!-- [root] digitalocean_droplet.vm&#45;01_desafio03 (expand)&#45;&gt;[root] var.droplet_name -->
<g id="edge13" class="edge">
<title>[root] digitalocean_droplet.vm&#45;01_desafio03 (expand)&#45;&gt;[root] var.droplet_name</title>
<path fill="none" stroke="black" d="M1476.28,-215.88C1494.13,-206.55 1516.4,-194.92 1535.5,-184.94"/>
<polygon fill="black" stroke="black" points="1537.35,-187.92 1544.59,-180.19 1534.11,-181.72 1537.35,-187.92"/>
</g>
<!-- [root] local.sizes (expand) -->
<g id="node27" class="node">
<title>[root] local.sizes (expand)</title>
<ellipse fill="none" stroke="black" cx="1261.5" cy="-162" rx="105.88" ry="18"/>
<text text-anchor="middle" x="1261.5" y="-158.3" font-family="Times New Roman,serif" font-size="14.00">[root] local.sizes (expand)</text>
</g>
<!-- [root] digitalocean_droplet.vm&#45;01_desafio03 (expand)&#45;&gt;[root] local.sizes (expand) -->
<g id="edge11" class="edge">
<title>[root] digitalocean_droplet.vm&#45;01_desafio03 (expand)&#45;&gt;[root] local.sizes (expand)</title>
<path fill="none" stroke="black" d="M1398.98,-215.88C1372.53,-205.7 1338.91,-192.77 1311.54,-182.25"/>
<polygon fill="black" stroke="black" points="1312.73,-178.96 1302.14,-178.63 1310.22,-185.49 1312.73,-178.96"/>
</g>
<!-- [root] digitalocean_droplet.vm&#45;02_desafio03 (expand)&#45;&gt;[root] data.digitalocean_ssh_key.ssh_key (expand) -->
<g id="edge14" class="edge">
<title>[root] digitalocean_droplet.vm&#45;02_desafio03 (expand)&#45;&gt;[root] data.digitalocean_ssh_key.ssh_key (expand)</title>
<path fill="none" stroke="black" d="M1015.69,-215.7C1018.03,-207.9 1020.85,-198.51 1023.45,-189.83"/>
<polygon fill="black" stroke="black" points="1026.85,-190.69 1026.37,-180.1 1020.14,-188.68 1026.85,-190.69"/>
</g>
<!-- [root] digitalocean_droplet.vm&#45;02_desafio03 (expand)&#45;&gt;[root] digitalocean_vpc.vpc_desafio_03 (expand) -->
<g id="edge15" class="edge">
<title>[root] digitalocean_droplet.vm&#45;02_desafio03 (expand)&#45;&gt;[root] digitalocean_vpc.vpc_desafio_03 (expand)</title>
<path fill="none" stroke="black" d="M960.37,-215.97C931.46,-206.14 894.93,-193.73 864.5,-183.39"/>
<polygon fill="black" stroke="black" points="865.45,-180.01 854.85,-180.11 863.2,-186.64 865.45,-180.01"/>
</g>
<!-- [root] digitalocean_droplet.vm&#45;02_desafio03 (expand)&#45;&gt;[root] var.droplet_image -->
<g id="edge17" class="edge">
<title>[root] digitalocean_droplet.vm&#45;02_desafio03 (expand)&#45;&gt;[root] var.droplet_image</title>
<path fill="none" stroke="black" d="M1125.54,-216.96C1215.45,-204.32 1331.24,-187.82 1374.86,-180.12"/>
<polygon fill="black" stroke="black" points="1375.56,-183.55 1384.75,-178.28 1374.28,-176.67 1375.56,-183.55"/>
</g>
<!-- [root] digitalocean_droplet.vm&#45;02_desafio03 (expand)&#45;&gt;[root] var.droplet_name -->
<g id="edge18" class="edge">
<title>[root] digitalocean_droplet.vm&#45;02_desafio03 (expand)&#45;&gt;[root] var.droplet_name</title>
<path fill="none" stroke="black" d="M1125.66,-217.05C1128.63,-216.69 1131.59,-216.34 1134.5,-216 1298.43,-196.94 1343.95,-208.6 1510.3,-180.05"/>
<polygon fill="black" stroke="black" points="1511.13,-183.46 1520.38,-178.3 1509.93,-176.56 1511.13,-183.46"/>
</g>
<!-- [root] digitalocean_droplet.vm&#45;02_desafio03 (expand)&#45;&gt;[root] local.sizes (expand) -->
<g id="edge16" class="edge">
<title>[root] digitalocean_droplet.vm&#45;02_desafio03 (expand)&#45;&gt;[root] local.sizes (expand)</title>
<path fill="none" stroke="black" d="M1071.58,-215.97C1110.24,-205.18 1160.09,-191.28 1199.02,-180.43"/>
<polygon fill="black" stroke="black" points="1199.97,-183.79 1208.67,-177.73 1198.09,-177.05 1199.97,-183.79"/>
</g>
<!-- [root] digitalocean_firewall.back&#45;firewall (expand) -->
<g id="node6" class="node">
<title>[root] digitalocean_firewall.back&#45;firewall (expand)</title>
<polygon fill="none" stroke="black" points="1297,-324 1092,-324 1092,-288 1297,-288 1297,-324"/>
<text text-anchor="middle" x="1194.5" y="-302.3" font-family="Times New Roman,serif" font-size="14.00">digitalocean_firewall.back&#45;firewall</text>
</g>
<!-- [root] digitalocean_firewall.back&#45;firewall (expand)&#45;&gt;[root] digitalocean_droplet.vm&#45;01_desafio03 (expand) -->
<g id="edge19" class="edge">
<title>[root] digitalocean_firewall.back&#45;firewall (expand)&#45;&gt;[root] digitalocean_droplet.vm&#45;01_desafio03 (expand)</title>
<path fill="none" stroke="black" d="M1255.09,-287.97C1290.64,-277.97 1335.72,-265.3 1372.88,-254.85"/>
<polygon fill="black" stroke="black" points="1373.95,-258.19 1382.63,-252.11 1372.06,-251.45 1373.95,-258.19"/>
</g>
<!-- [root] digitalocean_firewall.back&#45;firewall (expand)&#45;&gt;[root] digitalocean_droplet.vm&#45;02_desafio03 (expand) -->
<g id="edge20" class="edge">
<title>[root] digitalocean_firewall.back&#45;firewall (expand)&#45;&gt;[root] digitalocean_droplet.vm&#45;02_desafio03 (expand)</title>
<path fill="none" stroke="black" d="M1149.49,-287.88C1124,-278.18 1091.93,-265.98 1065.02,-255.74"/>
<polygon fill="black" stroke="black" points="1065.96,-252.35 1055.37,-252.07 1063.47,-258.9 1065.96,-252.35"/>
</g>
<!-- [root] var.do_fw_name_back -->
<g id="node13" class="node">
<title>[root] var.do_fw_name_back</title>
<polygon fill="none" stroke="black" points="1283.5,-252 1143.5,-252 1143.5,-216 1289.5,-216 1289.5,-246 1283.5,-252"/>
<polyline fill="none" stroke="black" points="1283.5,-252 1283.5,-246"/>
<polyline fill="none" stroke="black" points="1289.5,-246 1283.5,-246"/>
<text text-anchor="middle" x="1216.5" y="-230.3" font-family="Times New Roman,serif" font-size="14.00">var.do_fw_name_back</text>
</g>
<!-- [root] digitalocean_firewall.back&#45;firewall (expand)&#45;&gt;[root] var.do_fw_name_back -->
<g id="edge21" class="edge">
<title>[root] digitalocean_firewall.back&#45;firewall (expand)&#45;&gt;[root] var.do_fw_name_back</title>
<path fill="none" stroke="black" d="M1199.94,-287.7C1202.39,-279.9 1205.34,-270.51 1208.07,-261.83"/>
<polygon fill="black" stroke="black" points="1211.46,-262.69 1211.12,-252.1 1204.79,-260.59 1211.46,-262.69"/>
</g>
<!-- [root] digitalocean_firewall.front&#45;firewall (expand) -->
<g id="node7" class="node">
<title>[root] digitalocean_firewall.front&#45;firewall (expand)</title>
<polygon fill="none" stroke="black" points="1803,-396 1598,-396 1598,-360 1803,-360 1803,-396"/>
<text text-anchor="middle" x="1700.5" y="-374.3" font-family="Times New Roman,serif" font-size="14.00">digitalocean_firewall.front&#45;firewall</text>
</g>
<!-- [root] digitalocean_firewall.front&#45;firewall (expand)&#45;&gt;[root] digitalocean_droplet.vm&#45;01_desafio03 (expand) -->
<g id="edge22" class="edge">
<title>[root] digitalocean_firewall.front&#45;firewall (expand)&#45;&gt;[root] digitalocean_droplet.vm&#45;01_desafio03 (expand)</title>
<path fill="none" stroke="black" d="M1671.15,-359.85C1655.1,-350.04 1635.16,-337.09 1618.5,-324 1600.21,-309.62 1600.16,-300.43 1580.5,-288 1559.47,-274.7 1534.57,-263.85 1511.81,-255.5"/>
<polygon fill="black" stroke="black" points="1512.79,-252.13 1502.2,-252.07 1510.44,-258.73 1512.79,-252.13"/>
</g>
<!-- [root] var.do_fw_name_front -->
<g id="node14" class="node">
<title>[root] var.do_fw_name_front</title>
<polygon fill="none" stroke="black" points="1767.5,-324 1627.5,-324 1627.5,-288 1773.5,-288 1773.5,-318 1767.5,-324"/>
<polyline fill="none" stroke="black" points="1767.5,-324 1767.5,-318"/>
<polyline fill="none" stroke="black" points="1773.5,-318 1767.5,-318"/>
<text text-anchor="middle" x="1700.5" y="-302.3" font-family="Times New Roman,serif" font-size="14.00">var.do_fw_name_front</text>
</g>
<!-- [root] digitalocean_firewall.front&#45;firewall (expand)&#45;&gt;[root] var.do_fw_name_front -->
<g id="edge23" class="edge">
<title>[root] digitalocean_firewall.front&#45;firewall (expand)&#45;&gt;[root] var.do_fw_name_front</title>
<path fill="none" stroke="black" d="M1700.5,-359.7C1700.5,-351.98 1700.5,-342.71 1700.5,-334.11"/>
<polygon fill="black" stroke="black" points="1704,-334.1 1700.5,-324.1 1697,-334.1 1704,-334.1"/>
</g>
<!-- [root] digitalocean_reserved_ip.vm&#45;01_desafio03 (expand) -->
<g id="node8" class="node">
<title>[root] digitalocean_reserved_ip.vm&#45;01_desafio03 (expand)</title>
<polygon fill="none" stroke="black" points="1571.5,-324 1315.5,-324 1315.5,-288 1571.5,-288 1571.5,-324"/>
<text text-anchor="middle" x="1443.5" y="-302.3" font-family="Times New Roman,serif" font-size="14.00">digitalocean_reserved_ip.vm&#45;01_desafio03</text>
</g>
<!-- [root] digitalocean_reserved_ip.vm&#45;01_desafio03 (expand)&#45;&gt;[root] digitalocean_droplet.vm&#45;01_desafio03 (expand) -->
<g id="edge24" class="edge">
<title>[root] digitalocean_reserved_ip.vm&#45;01_desafio03 (expand)&#45;&gt;[root] digitalocean_droplet.vm&#45;01_desafio03 (expand)</title>
<path fill="none" stroke="black" d="M1443.5,-287.7C1443.5,-279.98 1443.5,-270.71 1443.5,-262.11"/>
<polygon fill="black" stroke="black" points="1447,-262.1 1443.5,-252.1 1440,-262.1 1447,-262.1"/>
</g>
<!-- [root] digitalocean_reserved_ip_assignment.vm&#45;01_desafio03 (expand) -->
<g id="node9" class="node">
<title>[root] digitalocean_reserved_ip_assignment.vm&#45;01_desafio03 (expand)</title>
<polygon fill="none" stroke="black" points="1580,-396 1255,-396 1255,-360 1580,-360 1580,-396"/>
<text text-anchor="middle" x="1417.5" y="-374.3" font-family="Times New Roman,serif" font-size="14.00">digitalocean_reserved_ip_assignment.vm&#45;01_desafio03</text>
</g>
<!-- [root] digitalocean_reserved_ip_assignment.vm&#45;01_desafio03 (expand)&#45;&gt;[root] digitalocean_reserved_ip.vm&#45;01_desafio03 (expand) -->
<g id="edge25" class="edge">
<title>[root] digitalocean_reserved_ip_assignment.vm&#45;01_desafio03 (expand)&#45;&gt;[root] digitalocean_reserved_ip.vm&#45;01_desafio03 (expand)</title>
<path fill="none" stroke="black" d="M1423.93,-359.7C1426.86,-351.81 1430.39,-342.3 1433.64,-333.55"/>
<polygon fill="black" stroke="black" points="1436.95,-334.7 1437.15,-324.1 1430.38,-332.26 1436.95,-334.7"/>
</g>
<!-- [root] digitalocean_vpc.vpc_desafio_03 (expand)&#45;&gt;[root] provider[&quot;registry.terraform.io/digitalocean/digitalocean&quot;] -->
<g id="edge27" class="edge">
<title>[root] digitalocean_vpc.vpc_desafio_03 (expand)&#45;&gt;[root] provider[&quot;registry.terraform.io/digitalocean/digitalocean&quot;]</title>
<path fill="none" stroke="black" d="M885.54,-143.97C940.06,-132.5 1011.37,-117.51 1064.21,-106.41"/>
<polygon fill="black" stroke="black" points="1065.12,-109.79 1074.18,-104.31 1063.68,-102.94 1065.12,-109.79"/>
</g>
<!-- [root] var.do_vpc_name -->
<g id="node17" class="node">
<title>[root] var.do_vpc_name</title>
<polygon fill="none" stroke="black" points="559.5,-108 447.5,-108 447.5,-72 565.5,-72 565.5,-102 559.5,-108"/>
<polyline fill="none" stroke="black" points="559.5,-108 559.5,-102"/>
<polyline fill="none" stroke="black" points="565.5,-102 559.5,-102"/>
<text text-anchor="middle" x="506.5" y="-86.3" font-family="Times New Roman,serif" font-size="14.00">var.do_vpc_name</text>
</g>
<!-- [root] digitalocean_vpc.vpc_desafio_03 (expand)&#45;&gt;[root] var.do_vpc_name -->
<g id="edge28" class="edge">
<title>[root] digitalocean_vpc.vpc_desafio_03 (expand)&#45;&gt;[root] var.do_vpc_name</title>
<path fill="none" stroke="black" d="M729.06,-143.99C686.58,-134.32 632.32,-121.82 575.67,-108.26"/>
<polygon fill="black" stroke="black" points="576.36,-104.83 565.82,-105.9 574.73,-111.64 576.36,-104.83"/>
</g>
<!-- [root] local.regions (expand) -->
<g id="node28" class="node">
<title>[root] local.regions (expand)</title>
<ellipse fill="none" stroke="black" cx="697.5" cy="-90" rx="114.28" ry="18"/>
<text text-anchor="middle" x="697.5" y="-86.3" font-family="Times New Roman,serif" font-size="14.00">[root] local.regions (expand)</text>
</g>
<!-- [root] digitalocean_vpc.vpc_desafio_03 (expand)&#45;&gt;[root] local.regions (expand) -->
<g id="edge26" class="edge">
<title>[root] digitalocean_vpc.vpc_desafio_03 (expand)&#45;&gt;[root] local.regions (expand)</title>
<path fill="none" stroke="black" d="M778.32,-143.88C764.26,-134.67 746.74,-123.22 731.62,-113.32"/>
<polygon fill="black" stroke="black" points="733.32,-110.25 723.04,-107.71 729.49,-116.11 733.32,-110.25"/>
</g>
<!-- [root] var.do_token -->
<g id="node16" class="node">
<title>[root] var.do_token</title>
<polygon fill="none" stroke="black" points="1177,-36 1092,-36 1092,0 1183,0 1183,-30 1177,-36"/>
<polyline fill="none" stroke="black" points="1177,-36 1177,-30"/>
<polyline fill="none" stroke="black" points="1183,-30 1177,-30"/>
<text text-anchor="middle" x="1137.5" y="-14.3" font-family="Times New Roman,serif" font-size="14.00">var.do_token</text>
</g>
<!-- [root] provider[&quot;registry.terraform.io/digitalocean/digitalocean&quot;]&#45;&gt;[root] var.do_token -->
<g id="edge37" class="edge">
<title>[root] provider[&quot;registry.terraform.io/digitalocean/digitalocean&quot;]&#45;&gt;[root] var.do_token</title>
<path fill="none" stroke="black" d="M1137.5,-71.7C1137.5,-63.98 1137.5,-54.71 1137.5,-46.11"/>
<polygon fill="black" stroke="black" points="1141,-46.1 1137.5,-36.1 1134,-46.1 1141,-46.1"/>
</g>
<!-- [root] var.description -->
<g id="node12" class="node">
<title>[root] var.description</title>
<polygon fill="none" stroke="black" points="383.5,-468 289.5,-468 289.5,-432 389.5,-432 389.5,-462 383.5,-468"/>
<polyline fill="none" stroke="black" points="383.5,-468 383.5,-462"/>
<polyline fill="none" stroke="black" points="389.5,-462 383.5,-462"/>
<text text-anchor="middle" x="339.5" y="-446.3" font-family="Times New Roman,serif" font-size="14.00">var.description</text>
</g>
<!-- [root] var.do_project_name -->
<g id="node15" class="node">
<title>[root] var.do_project_name</title>
<polygon fill="none" stroke="black" points="537.5,-468 407.5,-468 407.5,-432 543.5,-432 543.5,-462 537.5,-468"/>
<polyline fill="none" stroke="black" points="537.5,-468 537.5,-462"/>
<polyline fill="none" stroke="black" points="543.5,-462 537.5,-462"/>
<text text-anchor="middle" x="475.5" y="-446.3" font-family="Times New Roman,serif" font-size="14.00">var.do_project_name</text>
</g>
<!-- [root] var.environment -->
<g id="node20" class="node">
<title>[root] var.environment</title>
<polygon fill="none" stroke="black" points="661.5,-468 561.5,-468 561.5,-432 667.5,-432 667.5,-462 661.5,-468"/>
<polyline fill="none" stroke="black" points="661.5,-468 661.5,-462"/>
<polyline fill="none" stroke="black" points="667.5,-462 661.5,-462"/>
<text text-anchor="middle" x="614.5" y="-446.3" font-family="Times New Roman,serif" font-size="14.00">var.environment</text>
</g>
<!-- [root] var.pg_db_cluster_node_count -->
<g id="node23" class="node">
<title>[root] var.pg_db_cluster_node_count</title>
<polygon fill="none" stroke="black" points="873,-468 686,-468 686,-432 879,-432 879,-462 873,-468"/>
<polyline fill="none" stroke="black" points="873,-468 873,-462"/>
<polyline fill="none" stroke="black" points="879,-462 873,-462"/>
<text text-anchor="middle" x="782.5" y="-446.3" font-family="Times New Roman,serif" font-size="14.00">var.pg_db_cluster_node_count</text>
</g>
<!-- [root] var.purpose -->
<g id="node26" class="node">
<title>[root] var.purpose</title>
<polygon fill="none" stroke="black" points="974,-468 897,-468 897,-432 980,-432 980,-462 974,-468"/>
<polyline fill="none" stroke="black" points="974,-468 974,-462"/>
<polyline fill="none" stroke="black" points="980,-462 974,-462"/>
<text text-anchor="middle" x="938.5" y="-446.3" font-family="Times New Roman,serif" font-size="14.00">var.purpose</text>
</g>
<!-- [root] output.vm&#45;01_droplet_private_ip (expand) -->
<g id="node29" class="node">
<title>[root] output.vm&#45;01_droplet_private_ip (expand)</title>
<ellipse fill="none" stroke="black" cx="1980.5" cy="-306" rx="189.27" ry="18"/>
<text text-anchor="middle" x="1980.5" y="-302.3" font-family="Times New Roman,serif" font-size="14.00">[root] output.vm&#45;01_droplet_private_ip (expand)</text>
</g>
<!-- [root] output.vm&#45;01_droplet_private_ip (expand)&#45;&gt;[root] digitalocean_droplet.vm&#45;01_desafio03 (expand) -->
<g id="edge29" class="edge">
<title>[root] output.vm&#45;01_droplet_private_ip (expand)&#45;&gt;[root] digitalocean_droplet.vm&#45;01_desafio03 (expand)</title>
<path fill="none" stroke="black" d="M1873.76,-291.09C1785.97,-279.64 1661.38,-263.4 1568.85,-251.34"/>
<polygon fill="black" stroke="black" points="1569.23,-247.86 1558.86,-250.04 1568.33,-254.8 1569.23,-247.86"/>
</g>
<!-- [root] output.vm&#45;01_droplet_public_ip (expand) -->
<g id="node30" class="node">
<title>[root] output.vm&#45;01_droplet_public_ip (expand)</title>
<ellipse fill="none" stroke="black" cx="2159.5" cy="-378" rx="187.37" ry="18"/>
<text text-anchor="middle" x="2159.5" y="-374.3" font-family="Times New Roman,serif" font-size="14.00">[root] output.vm&#45;01_droplet_public_ip (expand)</text>
</g>
<!-- [root] output.vm&#45;01_droplet_public_ip (expand)&#45;&gt;[root] digitalocean_droplet.vm&#45;01_desafio03 (expand) -->
<g id="edge30" class="edge">
<title>[root] output.vm&#45;01_droplet_public_ip (expand)&#45;&gt;[root] digitalocean_droplet.vm&#45;01_desafio03 (expand)</title>
<path fill="none" stroke="black" d="M2170.89,-359.92C2182.58,-340.07 2196.69,-307.55 2178.5,-288 2137.94,-244.42 1767.79,-236.19 1568.78,-234.95"/>
<polygon fill="black" stroke="black" points="1568.57,-231.45 1558.55,-234.89 1568.53,-238.45 1568.57,-231.45"/>
</g>
<!-- [root] output.vm&#45;02_droplet_private_ip (expand) -->
<g id="node31" class="node">
<title>[root] output.vm&#45;02_droplet_private_ip (expand)</title>
<ellipse fill="none" stroke="black" cx="971.5" cy="-378" rx="189.27" ry="18"/>
<text text-anchor="middle" x="971.5" y="-374.3" font-family="Times New Roman,serif" font-size="14.00">[root] output.vm&#45;02_droplet_private_ip (expand)</text>
</g>
<!-- [root] output.vm&#45;02_droplet_private_ip (expand)&#45;&gt;[root] digitalocean_droplet.vm&#45;02_desafio03 (expand) -->
<g id="edge31" class="edge">
<title>[root] output.vm&#45;02_droplet_private_ip (expand)&#45;&gt;[root] digitalocean_droplet.vm&#45;02_desafio03 (expand)</title>
<path fill="none" stroke="black" d="M888.36,-361.77C834.88,-348.16 780.24,-324.63 808.5,-288 819.46,-273.8 852.12,-262.66 888.07,-254.33"/>
<polygon fill="black" stroke="black" points="889.29,-257.65 898.29,-252.06 887.77,-250.81 889.29,-257.65"/>
</g>
<!-- [root] output.vm&#45;02_droplet_public_ip (expand) -->
<g id="node32" class="node">
<title>[root] output.vm&#45;02_droplet_public_ip (expand)</title>
<ellipse fill="none" stroke="black" cx="577.5" cy="-378" rx="187.37" ry="18"/>
<text text-anchor="middle" x="577.5" y="-374.3" font-family="Times New Roman,serif" font-size="14.00">[root] output.vm&#45;02_droplet_public_ip (expand)</text>
</g>
<!-- [root] output.vm&#45;02_droplet_public_ip (expand)&#45;&gt;[root] digitalocean_droplet.vm&#45;02_desafio03 (expand) -->
<g id="edge32" class="edge">
<title>[root] output.vm&#45;02_droplet_public_ip (expand)&#45;&gt;[root] digitalocean_droplet.vm&#45;02_desafio03 (expand)</title>
<path fill="none" stroke="black" d="M614.1,-360.24C657.11,-340.99 730.93,-309.32 796.5,-288 836.51,-274.99 881.62,-263.38 920.07,-254.37"/>
<polygon fill="black" stroke="black" points="921.26,-257.68 930.21,-252.01 919.68,-250.86 921.26,-257.68"/>
</g>
<!-- [root] provider[&quot;registry.terraform.io/digitalocean/digitalocean&quot;] (close) -->
<g id="node33" class="node">
<title>[root] provider[&quot;registry.terraform.io/digitalocean/digitalocean&quot;] (close)</title>
<ellipse fill="none" stroke="black" cx="1342.5" cy="-450" rx="268.35" ry="18"/>
<text text-anchor="middle" x="1342.5" y="-446.3" font-family="Times New Roman,serif" font-size="14.00">[root] provider[&quot;registry.terraform.io/digitalocean/digitalocean&quot;] (close)</text>
</g>
<!-- [root] provider[&quot;registry.terraform.io/digitalocean/digitalocean&quot;] (close)&#45;&gt;[root] digitalocean_database_firewall.database&#45;fw (expand) -->
<g id="edge33" class="edge">
<title>[root] provider[&quot;registry.terraform.io/digitalocean/digitalocean&quot;] (close)&#45;&gt;[root] digitalocean_database_firewall.database&#45;fw (expand)</title>
<path fill="none" stroke="black" d="M1292.93,-432.22C1268.53,-423.04 1239.14,-410.56 1214.5,-396 1192.45,-382.97 1192.52,-371.22 1169.5,-360 1138.77,-345.02 1103.56,-334.13 1070.3,-326.28"/>
<polygon fill="black" stroke="black" points="1071.04,-322.86 1060.51,-324.04 1069.48,-329.68 1071.04,-322.86"/>
</g>
<!-- [root] provider[&quot;registry.terraform.io/digitalocean/digitalocean&quot;] (close)&#45;&gt;[root] digitalocean_firewall.back&#45;firewall (expand) -->
<g id="edge34" class="edge">
<title>[root] provider[&quot;registry.terraform.io/digitalocean/digitalocean&quot;] (close)&#45;&gt;[root] digitalocean_firewall.back&#45;firewall (expand)</title>
<path fill="none" stroke="black" d="M1300.99,-432.16C1282.77,-423.33 1262.03,-411.16 1246.5,-396 1228.29,-378.22 1214.26,-352.73 1205.39,-333.58"/>
<polygon fill="black" stroke="black" points="1208.49,-331.94 1201.23,-324.22 1202.1,-334.78 1208.49,-331.94"/>
</g>
<!-- [root] provider[&quot;registry.terraform.io/digitalocean/digitalocean&quot;] (close)&#45;&gt;[root] digitalocean_firewall.front&#45;firewall (expand) -->
<g id="edge35" class="edge">
<title>[root] provider[&quot;registry.terraform.io/digitalocean/digitalocean&quot;] (close)&#45;&gt;[root] digitalocean_firewall.front&#45;firewall (expand)</title>
<path fill="none" stroke="black" d="M1425.08,-432.85C1478.26,-422.45 1547.63,-408.89 1603.44,-397.98"/>
<polygon fill="black" stroke="black" points="1604.2,-401.4 1613.34,-396.04 1602.85,-394.53 1604.2,-401.4"/>
</g>
<!-- [root] provider[&quot;registry.terraform.io/digitalocean/digitalocean&quot;] (close)&#45;&gt;[root] digitalocean_reserved_ip_assignment.vm&#45;01_desafio03 (expand) -->
<g id="edge36" class="edge">
<title>[root] provider[&quot;registry.terraform.io/digitalocean/digitalocean&quot;] (close)&#45;&gt;[root] digitalocean_reserved_ip_assignment.vm&#45;01_desafio03 (expand)</title>
<path fill="none" stroke="black" d="M1361.04,-431.7C1370.3,-423.05 1381.66,-412.45 1391.76,-403.03"/>
<polygon fill="black" stroke="black" points="1394.25,-405.49 1399.17,-396.1 1389.48,-400.37 1394.25,-405.49"/>
</g>
<!-- [root] root -->
<g id="node34" class="node">
<title>[root] root</title>
<ellipse fill="none" stroke="black" cx="973.5" cy="-522" rx="49.29" ry="18"/>
<text text-anchor="middle" x="973.5" y="-518.3" font-family="Times New Roman,serif" font-size="14.00">[root] root</text>
</g>
<!-- [root] root&#45;&gt;[root] var.description -->
<g id="edge43" class="edge">
<title>[root] root&#45;&gt;[root] var.description</title>
<path fill="none" stroke="black" d="M924.22,-519.59C825.93,-516.09 598.57,-504.63 399.61,-468"/>
<polygon fill="black" stroke="black" points="400.03,-464.51 389.56,-466.12 398.74,-471.4 400.03,-464.51"/>
</g>
<!-- [root] root&#45;&gt;[root] var.do_project_name -->
<g id="edge44" class="edge">
<title>[root] root&#45;&gt;[root] var.do_project_name</title>
<path fill="none" stroke="black" d="M926.25,-516.49C849.98,-508.88 694.83,-492.13 553.98,-468.17"/>
<polygon fill="black" stroke="black" points="554.32,-464.68 543.87,-466.44 553.13,-471.58 554.32,-464.68"/>
</g>
<!-- [root] root&#45;&gt;[root] var.environment -->
<g id="edge45" class="edge">
<title>[root] root&#45;&gt;[root] var.environment</title>
<path fill="none" stroke="black" d="M928.72,-514.31C872.29,-505.6 772.2,-489.18 677.28,-468.07"/>
<polygon fill="black" stroke="black" points="678.04,-464.66 667.52,-465.88 676.51,-471.49 678.04,-464.66"/>
</g>
<!-- [root] root&#45;&gt;[root] var.pg_db_cluster_node_count -->
<g id="edge46" class="edge">
<title>[root] root&#45;&gt;[root] var.pg_db_cluster_node_count</title>
<path fill="none" stroke="black" d="M939.79,-508.65C911.82,-498.39 871.45,-483.6 838.61,-471.56"/>
<polygon fill="black" stroke="black" points="839.72,-468.24 829.12,-468.09 837.31,-474.81 839.72,-468.24"/>
</g>
<!-- [root] root&#45;&gt;[root] var.purpose -->
<g id="edge47" class="edge">
<title>[root] root&#45;&gt;[root] var.purpose</title>
<path fill="none" stroke="black" d="M965.03,-504.05C961,-496.01 956.1,-486.2 951.61,-477.23"/>
<polygon fill="black" stroke="black" points="954.74,-475.65 947.14,-468.28 948.48,-478.78 954.74,-475.65"/>
</g>
<!-- [root] root&#45;&gt;[root] output.vm&#45;01_droplet_private_ip (expand) -->
<g id="edge38" class="edge">
<title>[root] root&#45;&gt;[root] output.vm&#45;01_droplet_private_ip (expand)</title>
<path fill="none" stroke="black" d="M1023.22,-521.54C1132.49,-521.72 1401.21,-516.69 1619.5,-468 1708.86,-448.07 1728.98,-433.51 1812.5,-396 1858.19,-375.48 1908.73,-348.02 1942.33,-329.05"/>
<polygon fill="black" stroke="black" points="1944.37,-331.92 1951.34,-323.94 1940.92,-325.83 1944.37,-331.92"/>
</g>
<!-- [root] root&#45;&gt;[root] output.vm&#45;01_droplet_public_ip (expand) -->
<g id="edge39" class="edge">
<title>[root] root&#45;&gt;[root] output.vm&#45;01_droplet_public_ip (expand)</title>
<path fill="none" stroke="black" d="M1022.89,-520.19C1191.92,-517.11 1746.43,-504.41 1920.5,-468 1991.05,-453.24 2068.51,-421.27 2115.57,-399.94"/>
<polygon fill="black" stroke="black" points="2117.22,-403.03 2124.86,-395.69 2114.31,-396.67 2117.22,-403.03"/>
</g>
<!-- [root] root&#45;&gt;[root] output.vm&#45;02_droplet_private_ip (expand) -->
<g id="edge40" class="edge">
<title>[root] root&#45;&gt;[root] output.vm&#45;02_droplet_private_ip (expand)</title>
<path fill="none" stroke="black" d="M993.87,-505.48C1004.59,-495.98 1016.7,-482.82 1022.5,-468 1028.33,-453.1 1028.48,-446.84 1022.5,-432 1018.11,-421.12 1010.31,-411.22 1002.1,-403"/>
<polygon fill="black" stroke="black" points="1004.24,-400.21 994.54,-395.95 999.46,-405.33 1004.24,-400.21"/>
</g>
<!-- [root] root&#45;&gt;[root] output.vm&#45;02_droplet_public_ip (expand) -->
<g id="edge41" class="edge">
<title>[root] root&#45;&gt;[root] output.vm&#45;02_droplet_public_ip (expand)</title>
<path fill="none" stroke="black" d="M983.86,-504.05C994.44,-484.33 1007.02,-451.92 989.5,-432 980.26,-421.49 830.75,-404.24 714.47,-392.29"/>
<polygon fill="black" stroke="black" points="714.7,-388.79 704.39,-391.26 713.98,-395.76 714.7,-388.79"/>
</g>
<!-- [root] root&#45;&gt;[root] provider[&quot;registry.terraform.io/digitalocean/digitalocean&quot;] (close) -->
<g id="edge42" class="edge">
<title>[root] root&#45;&gt;[root] provider[&quot;registry.terraform.io/digitalocean/digitalocean&quot;] (close)</title>
<path fill="none" stroke="black" d="M1016.19,-512.9C1072.47,-502.22 1173.09,-483.14 1247.77,-468.97"/>
<polygon fill="black" stroke="black" points="1248.49,-472.4 1257.66,-467.09 1247.19,-465.52 1248.49,-472.4"/>
</g>
</g>
</svg>
