<?xml version="1.0" encoding="UTF-8" standalone="no"?>
<!DOCTYPE svg PUBLIC "-//W3C//DTD SVG 1.1//EN"
 "http://www.w3.org/Graphics/SVG/1.1/DTD/svg11.dtd">
<!-- Generated by graphviz version 5.0.1 (20220820.1526)
 -->
<!-- Pages: 1 -->
<svg width="3107pt" height="476pt"
 viewBox="0.00 0.00 3107.00 476.00" xmlns="http://www.w3.org/2000/svg" xmlns:xlink="http://www.w3.org/1999/xlink">
<g id="graph0" class="graph" transform="scale(1 1) rotate(0) translate(4 472)">
<polygon fill="white" stroke="none" points="-4,4 -4,-472 3103,-472 3103,4 -4,4"/>
<!-- [root] data.digitalocean_ssh_key.ssh_key (expand) -->
<g id="node1" class="node">
<title>[root] data.digitalocean_ssh_key.ssh_key (expand)</title>
<polygon fill="none" stroke="black" points="1972.5,-180 1760.5,-180 1760.5,-144 1972.5,-144 1972.5,-180"/>
<text text-anchor="middle" x="1866.5" y="-158.3" font-family="Times New Roman,serif" font-size="14.00">data.digitalocean_ssh_key.ssh_key</text>
</g>
<!-- [root] provider[&quot;registry.terraform.io/digitalocean/digitalocean&quot;] -->
<g id="node13" class="node">
<title>[root] provider[&quot;registry.terraform.io/digitalocean/digitalocean&quot;]</title>
<polygon fill="none" stroke="black" points="1690.5,-108 1382.66,-90 1690.5,-72 1998.34,-90 1690.5,-108"/>
<text text-anchor="middle" x="1690.5" y="-86.3" font-family="Times New Roman,serif" font-size="14.00">provider[&quot;registry.terraform.io/digitalocean/digitalocean&quot;]</text>
</g>
<!-- [root] data.digitalocean_ssh_key.ssh_key (expand)&#45;&gt;[root] provider[&quot;registry.terraform.io/digitalocean/digitalocean&quot;] -->
<g id="edge1" class="edge">
<title>[root] data.digitalocean_ssh_key.ssh_key (expand)&#45;&gt;[root] provider[&quot;registry.terraform.io/digitalocean/digitalocean&quot;]</title>
<path fill="none" stroke="black" d="M1823.45,-143.88C1797.43,-133.53 1764.26,-120.34 1737.56,-109.72"/>
<polygon fill="black" stroke="black" points="1738.62,-106.37 1728.04,-105.93 1736.03,-112.88 1738.62,-106.37"/>
</g>
<!-- [root] digitalocean_database_cluster.postgres&#45;desafio03 (expand) -->
<g id="node2" class="node">
<title>[root] digitalocean_database_cluster.postgres&#45;desafio03 (expand)</title>
<polygon fill="none" stroke="black" points="568,-180 275,-180 275,-144 568,-144 568,-180"/>
<text text-anchor="middle" x="421.5" y="-158.3" font-family="Times New Roman,serif" font-size="14.00">digitalocean_database_cluster.postgres&#45;desafio03</text>
</g>
<!-- [root] digitalocean_database_cluster.postgres&#45;desafio03 (expand)&#45;&gt;[root] provider[&quot;registry.terraform.io/digitalocean/digitalocean&quot;] -->
<g id="edge3" class="edge">
<title>[root] digitalocean_database_cluster.postgres&#45;desafio03 (expand)&#45;&gt;[root] provider[&quot;registry.terraform.io/digitalocean/digitalocean&quot;]</title>
<path fill="none" stroke="black" d="M568.04,-144.76C571.22,-144.49 574.38,-144.24 577.5,-144 930.59,-116.8 1019.79,-125.48 1373.5,-108 1424.72,-105.47 1480.58,-102.53 1530.95,-99.82"/>
<polygon fill="black" stroke="black" points="1531.15,-103.31 1540.95,-99.28 1530.77,-96.32 1531.15,-103.31"/>
</g>
<!-- [root] var.pg_db_cluster_engine -->
<g id="node27" class="node">
<title>[root] var.pg_db_cluster_engine</title>
<polygon fill="none" stroke="black" points="678,-108 523,-108 523,-72 684,-72 684,-102 678,-108"/>
<polyline fill="none" stroke="black" points="678,-108 678,-102"/>
<polyline fill="none" stroke="black" points="684,-102 678,-102"/>
<text text-anchor="middle" x="603.5" y="-86.3" font-family="Times New Roman,serif" font-size="14.00">var.pg_db_cluster_engine</text>
</g>
<!-- [root] digitalocean_database_cluster.postgres&#45;desafio03 (expand)&#45;&gt;[root] var.pg_db_cluster_engine -->
<g id="edge4" class="edge">
<title>[root] digitalocean_database_cluster.postgres&#45;desafio03 (expand)&#45;&gt;[root] var.pg_db_cluster_engine</title>
<path fill="none" stroke="black" d="M466.02,-143.88C491.23,-134.18 522.95,-121.98 549.57,-111.74"/>
<polygon fill="black" stroke="black" points="551.05,-114.92 559.12,-108.07 548.53,-108.39 551.05,-114.92"/>
</g>
<!-- [root] var.pg_db_cluster_name -->
<g id="node28" class="node">
<title>[root] var.pg_db_cluster_name</title>
<polygon fill="none" stroke="black" points="149,-108 0,-108 0,-72 155,-72 155,-102 149,-108"/>
<polyline fill="none" stroke="black" points="149,-108 149,-102"/>
<polyline fill="none" stroke="black" points="155,-102 149,-102"/>
<text text-anchor="middle" x="77.5" y="-86.3" font-family="Times New Roman,serif" font-size="14.00">var.pg_db_cluster_name</text>
</g>
<!-- [root] digitalocean_database_cluster.postgres&#45;desafio03 (expand)&#45;&gt;[root] var.pg_db_cluster_name -->
<g id="edge5" class="edge">
<title>[root] digitalocean_database_cluster.postgres&#45;desafio03 (expand)&#45;&gt;[root] var.pg_db_cluster_name</title>
<path fill="none" stroke="black" d="M337.79,-143.97C285.47,-133.32 218.21,-119.63 165.17,-108.84"/>
<polygon fill="black" stroke="black" points="165.59,-105.35 155.1,-106.79 164.2,-112.21 165.59,-105.35"/>
</g>
<!-- [root] var.pg_db_cluster_size -->
<g id="node30" class="node">
<title>[root] var.pg_db_cluster_size</title>
<polygon fill="none" stroke="black" points="314,-108 173,-108 173,-72 320,-72 320,-102 314,-108"/>
<polyline fill="none" stroke="black" points="314,-108 314,-102"/>
<polyline fill="none" stroke="black" points="320,-102 314,-102"/>
<text text-anchor="middle" x="246.5" y="-86.3" font-family="Times New Roman,serif" font-size="14.00">var.pg_db_cluster_size</text>
</g>
<!-- [root] digitalocean_database_cluster.postgres&#45;desafio03 (expand)&#45;&gt;[root] var.pg_db_cluster_size -->
<g id="edge6" class="edge">
<title>[root] digitalocean_database_cluster.postgres&#45;desafio03 (expand)&#45;&gt;[root] var.pg_db_cluster_size</title>
<path fill="none" stroke="black" d="M378.69,-143.88C354.55,-134.22 324.22,-122.09 298.69,-111.88"/>
<polygon fill="black" stroke="black" points="299.76,-108.53 289.17,-108.07 297.16,-115.03 299.76,-108.53"/>
</g>
<!-- [root] var.pg_db_cluster_version -->
<g id="node31" class="node">
<title>[root] var.pg_db_cluster_version</title>
<polygon fill="none" stroke="black" points="499,-108 338,-108 338,-72 505,-72 505,-102 499,-108"/>
<polyline fill="none" stroke="black" points="499,-108 499,-102"/>
<polyline fill="none" stroke="black" points="505,-102 499,-102"/>
<text text-anchor="middle" x="421.5" y="-86.3" font-family="Times New Roman,serif" font-size="14.00">var.pg_db_cluster_version</text>
</g>
<!-- [root] digitalocean_database_cluster.postgres&#45;desafio03 (expand)&#45;&gt;[root] var.pg_db_cluster_version -->
<g id="edge7" class="edge">
<title>[root] digitalocean_database_cluster.postgres&#45;desafio03 (expand)&#45;&gt;[root] var.pg_db_cluster_version</title>
<path fill="none" stroke="black" d="M421.5,-143.7C421.5,-135.98 421.5,-126.71 421.5,-118.11"/>
<polygon fill="black" stroke="black" points="425,-118.1 421.5,-108.1 418,-118.1 425,-118.1"/>
</g>
<!-- [root] local.regions (expand) -->
<g id="node33" class="node">
<title>[root] local.regions (expand)</title>
<ellipse fill="none" stroke="black" cx="816.5" cy="-90" rx="114.28" ry="18"/>
<text text-anchor="middle" x="816.5" y="-86.3" font-family="Times New Roman,serif" font-size="14.00">[root] local.regions (expand)</text>
</g>
<!-- [root] digitalocean_database_cluster.postgres&#45;desafio03 (expand)&#45;&gt;[root] local.regions (expand) -->
<g id="edge2" class="edge">
<title>[root] digitalocean_database_cluster.postgres&#45;desafio03 (expand)&#45;&gt;[root] local.regions (expand)</title>
<path fill="none" stroke="black" d="M517.62,-143.97C583.74,-132.25 670.64,-116.85 733.69,-105.68"/>
<polygon fill="black" stroke="black" points="734.36,-109.11 743.6,-103.92 733.14,-102.22 734.36,-109.11"/>
</g>
<!-- [root] digitalocean_database_firewall.database&#45;fw (expand) -->
<g id="node3" class="node">
<title>[root] digitalocean_database_firewall.database&#45;fw (expand)</title>
<polygon fill="none" stroke="black" points="905,-324 648,-324 648,-288 905,-288 905,-324"/>
<text text-anchor="middle" x="776.5" y="-302.3" font-family="Times New Roman,serif" font-size="14.00">digitalocean_database_firewall.database&#45;fw</text>
</g>
<!-- [root] digitalocean_database_firewall.database&#45;fw (expand)&#45;&gt;[root] digitalocean_database_cluster.postgres&#45;desafio03 (expand) -->
<g id="edge8" class="edge">
<title>[root] digitalocean_database_firewall.database&#45;fw (expand)&#45;&gt;[root] digitalocean_database_cluster.postgres&#45;desafio03 (expand)</title>
<path fill="none" stroke="black" d="M733.68,-287.87C668.42,-261.77 544.25,-212.1 473.77,-183.91"/>
<polygon fill="black" stroke="black" points="474.78,-180.54 464.2,-180.08 472.18,-187.04 474.78,-180.54"/>
</g>
<!-- [root] digitalocean_droplet.vm&#45;backend (expand) -->
<g id="node4" class="node">
<title>[root] digitalocean_droplet.vm&#45;backend (expand)</title>
<polygon fill="none" stroke="black" points="1203,-252 1000,-252 1000,-216 1203,-216 1203,-252"/>
<text text-anchor="middle" x="1101.5" y="-230.3" font-family="Times New Roman,serif" font-size="14.00">digitalocean_droplet.vm&#45;backend</text>
</g>
<!-- [root] digitalocean_database_firewall.database&#45;fw (expand)&#45;&gt;[root] digitalocean_droplet.vm&#45;backend (expand) -->
<g id="edge9" class="edge">
<title>[root] digitalocean_database_firewall.database&#45;fw (expand)&#45;&gt;[root] digitalocean_droplet.vm&#45;backend (expand)</title>
<path fill="none" stroke="black" d="M855.59,-287.97C902.96,-277.76 963.31,-264.76 1012.37,-254.2"/>
<polygon fill="black" stroke="black" points="1013.3,-257.58 1022.34,-252.05 1011.83,-250.73 1013.3,-257.58"/>
</g>
<!-- [root] digitalocean_droplet.vm&#45;backend (expand)&#45;&gt;[root] data.digitalocean_ssh_key.ssh_key (expand) -->
<g id="edge10" class="edge">
<title>[root] digitalocean_droplet.vm&#45;backend (expand)&#45;&gt;[root] data.digitalocean_ssh_key.ssh_key (expand)</title>
<path fill="none" stroke="black" d="M1203.08,-217.09C1206.25,-216.7 1209.4,-216.34 1212.5,-216 1447.89,-190.16 1511.06,-205.15 1750.28,-180.08"/>
<polygon fill="black" stroke="black" points="1750.76,-183.55 1760.33,-179.01 1750.02,-176.58 1750.76,-183.55"/>
</g>
<!-- [root] digitalocean_vpc.vpc_desafio (expand) -->
<g id="node12" class="node">
<title>[root] digitalocean_vpc.vpc_desafio (expand)</title>
<polygon fill="none" stroke="black" points="1606.5,-180 1422.5,-180 1422.5,-144 1606.5,-144 1606.5,-180"/>
<text text-anchor="middle" x="1514.5" y="-158.3" font-family="Times New Roman,serif" font-size="14.00">digitalocean_vpc.vpc_desafio</text>
</g>
<!-- [root] digitalocean_droplet.vm&#45;backend (expand)&#45;&gt;[root] digitalocean_vpc.vpc_desafio (expand) -->
<g id="edge11" class="edge">
<title>[root] digitalocean_droplet.vm&#45;backend (expand)&#45;&gt;[root] digitalocean_vpc.vpc_desafio (expand)</title>
<path fill="none" stroke="black" d="M1202,-215.97C1265.8,-205.15 1348.12,-191.2 1412.26,-180.33"/>
<polygon fill="black" stroke="black" points="1413.11,-183.73 1422.39,-178.61 1411.94,-176.83 1413.11,-183.73"/>
</g>
<!-- [root] var.do_count_backend -->
<g id="node15" class="node">
<title>[root] var.do_count_backend</title>
<polygon fill="none" stroke="black" points="1168.5,-180 1028.5,-180 1028.5,-144 1174.5,-144 1174.5,-174 1168.5,-180"/>
<polyline fill="none" stroke="black" points="1168.5,-180 1168.5,-174"/>
<polyline fill="none" stroke="black" points="1174.5,-174 1168.5,-174"/>
<text text-anchor="middle" x="1101.5" y="-158.3" font-family="Times New Roman,serif" font-size="14.00">var.do_count_backend</text>
</g>
<!-- [root] digitalocean_droplet.vm&#45;backend (expand)&#45;&gt;[root] var.do_count_backend -->
<g id="edge13" class="edge">
<title>[root] digitalocean_droplet.vm&#45;backend (expand)&#45;&gt;[root] var.do_count_backend</title>
<path fill="none" stroke="black" d="M1101.5,-215.7C1101.5,-207.98 1101.5,-198.71 1101.5,-190.11"/>
<polygon fill="black" stroke="black" points="1105,-190.1 1101.5,-180.1 1098,-190.1 1105,-190.1"/>
</g>
<!-- [root] var.droplet_image -->
<g id="node23" class="node">
<title>[root] var.droplet_image</title>
<polygon fill="none" stroke="black" points="1736,-180 1625,-180 1625,-144 1742,-144 1742,-174 1736,-180"/>
<polyline fill="none" stroke="black" points="1736,-180 1736,-174"/>
<polyline fill="none" stroke="black" points="1742,-174 1736,-174"/>
<text text-anchor="middle" x="1683.5" y="-158.3" font-family="Times New Roman,serif" font-size="14.00">var.droplet_image</text>
</g>
<!-- [root] digitalocean_droplet.vm&#45;backend (expand)&#45;&gt;[root] var.droplet_image -->
<g id="edge14" class="edge">
<title>[root] digitalocean_droplet.vm&#45;backend (expand)&#45;&gt;[root] var.droplet_image</title>
<path fill="none" stroke="black" d="M1203.09,-217.18C1206.26,-216.77 1209.4,-216.38 1212.5,-216 1387.79,-194.77 1436.43,-209.35 1614.67,-179.98"/>
<polygon fill="black" stroke="black" points="1615.36,-183.41 1624.65,-178.31 1614.21,-176.51 1615.36,-183.41"/>
</g>
<!-- [root] var.droplet_name_back -->
<g id="node25" class="node">
<title>[root] var.droplet_name_back</title>
<polygon fill="none" stroke="black" points="1004,-180 861,-180 861,-144 1010,-144 1010,-174 1004,-180"/>
<polyline fill="none" stroke="black" points="1004,-180 1004,-174"/>
<polyline fill="none" stroke="black" points="1010,-174 1004,-174"/>
<text text-anchor="middle" x="935.5" y="-158.3" font-family="Times New Roman,serif" font-size="14.00">var.droplet_name_back</text>
</g>
<!-- [root] digitalocean_droplet.vm&#45;backend (expand)&#45;&gt;[root] var.droplet_name_back -->
<g id="edge15" class="edge">
<title>[root] digitalocean_droplet.vm&#45;backend (expand)&#45;&gt;[root] var.droplet_name_back</title>
<path fill="none" stroke="black" d="M1060.89,-215.88C1038.1,-206.26 1009.47,-194.19 985.33,-184.01"/>
<polygon fill="black" stroke="black" points="986.55,-180.73 975.98,-180.07 983.83,-187.18 986.55,-180.73"/>
</g>
<!-- [root] local.sizes (expand) -->
<g id="node34" class="node">
<title>[root] local.sizes (expand)</title>
<ellipse fill="none" stroke="black" cx="1298.5" cy="-162" rx="105.88" ry="18"/>
<text text-anchor="middle" x="1298.5" y="-158.3" font-family="Times New Roman,serif" font-size="14.00">[root] local.sizes (expand)</text>
</g>
<!-- [root] digitalocean_droplet.vm&#45;backend (expand)&#45;&gt;[root] local.sizes (expand) -->
<g id="edge12" class="edge">
<title>[root] digitalocean_droplet.vm&#45;backend (expand)&#45;&gt;[root] local.sizes (expand)</title>
<path fill="none" stroke="black" d="M1149.44,-215.97C1178.52,-205.63 1215.68,-192.43 1245.61,-181.79"/>
<polygon fill="black" stroke="black" points="1246.81,-185.08 1255.06,-178.44 1244.47,-178.49 1246.81,-185.08"/>
</g>
<!-- [root] digitalocean_droplet.vm&#45;front (expand) -->
<g id="node5" class="node">
<title>[root] digitalocean_droplet.vm&#45;front (expand)</title>
<polygon fill="none" stroke="black" points="2067.5,-252 1885.5,-252 1885.5,-216 2067.5,-216 2067.5,-252"/>
<text text-anchor="middle" x="1976.5" y="-230.3" font-family="Times New Roman,serif" font-size="14.00">digitalocean_droplet.vm&#45;front</text>
</g>
<!-- [root] digitalocean_droplet.vm&#45;front (expand)&#45;&gt;[root] data.digitalocean_ssh_key.ssh_key (expand) -->
<g id="edge16" class="edge">
<title>[root] digitalocean_droplet.vm&#45;front (expand)&#45;&gt;[root] data.digitalocean_ssh_key.ssh_key (expand)</title>
<path fill="none" stroke="black" d="M1949.59,-215.88C1935.34,-206.81 1917.65,-195.55 1902.26,-185.76"/>
<polygon fill="black" stroke="black" points="1903.83,-182.61 1893.51,-180.19 1900.07,-188.51 1903.83,-182.61"/>
</g>
<!-- [root] digitalocean_tag.foobar (expand) -->
<g id="node11" class="node">
<title>[root] digitalocean_tag.foobar (expand)</title>
<polygon fill="none" stroke="black" points="2138.5,-180 1990.5,-180 1990.5,-144 2138.5,-144 2138.5,-180"/>
<text text-anchor="middle" x="2064.5" y="-158.3" font-family="Times New Roman,serif" font-size="14.00">digitalocean_tag.foobar</text>
</g>
<!-- [root] digitalocean_droplet.vm&#45;front (expand)&#45;&gt;[root] digitalocean_tag.foobar (expand) -->
<g id="edge17" class="edge">
<title>[root] digitalocean_droplet.vm&#45;front (expand)&#45;&gt;[root] digitalocean_tag.foobar (expand)</title>
<path fill="none" stroke="black" d="M1998.25,-215.7C2009.34,-206.88 2022.97,-196.03 2034.99,-186.47"/>
<polygon fill="black" stroke="black" points="2037.35,-189.07 2043,-180.1 2032.99,-183.59 2037.35,-189.07"/>
</g>
<!-- [root] digitalocean_droplet.vm&#45;front (expand)&#45;&gt;[root] digitalocean_vpc.vpc_desafio (expand) -->
<g id="edge18" class="edge">
<title>[root] digitalocean_droplet.vm&#45;front (expand)&#45;&gt;[root] digitalocean_vpc.vpc_desafio (expand)</title>
<path fill="none" stroke="black" d="M1885.23,-217.37C1882.29,-216.9 1879.37,-216.44 1876.5,-216 1761.2,-198.22 1731.82,-197.59 1616.5,-180 1616.4,-179.98 1616.29,-179.97 1616.19,-179.95"/>
<polygon fill="black" stroke="black" points="1616.92,-176.52 1606.5,-178.45 1615.85,-183.44 1616.92,-176.52"/>
</g>
<!-- [root] var.do_count_frontend -->
<g id="node16" class="node">
<title>[root] var.do_count_frontend</title>
<polygon fill="none" stroke="black" points="2428.5,-180 2288.5,-180 2288.5,-144 2434.5,-144 2434.5,-174 2428.5,-180"/>
<polyline fill="none" stroke="black" points="2428.5,-180 2428.5,-174"/>
<polyline fill="none" stroke="black" points="2434.5,-174 2428.5,-174"/>
<text text-anchor="middle" x="2361.5" y="-158.3" font-family="Times New Roman,serif" font-size="14.00">var.do_count_frontend</text>
</g>
<!-- [root] digitalocean_droplet.vm&#45;front (expand)&#45;&gt;[root] var.do_count_frontend -->
<g id="edge20" class="edge">
<title>[root] digitalocean_droplet.vm&#45;front (expand)&#45;&gt;[root] var.do_count_frontend</title>
<path fill="none" stroke="black" d="M2067.79,-217.8C2125.41,-208.02 2201.67,-194.75 2277.93,-180.27"/>
<polygon fill="black" stroke="black" points="2279.04,-183.62 2288.21,-178.31 2277.73,-176.75 2279.04,-183.62"/>
</g>
<!-- [root] digitalocean_droplet.vm&#45;front (expand)&#45;&gt;[root] var.droplet_image -->
<g id="edge21" class="edge">
<title>[root] digitalocean_droplet.vm&#45;front (expand)&#45;&gt;[root] var.droplet_image</title>
<path fill="none" stroke="black" d="M1902.97,-215.95C1861.39,-206.24 1808.2,-193.72 1751.89,-180.08"/>
<polygon fill="black" stroke="black" points="1752.64,-176.66 1742.09,-177.7 1750.99,-183.46 1752.64,-176.66"/>
</g>
<!-- [root] var.droplet_name -->
<g id="node24" class="node">
<title>[root] var.droplet_name</title>
<polygon fill="none" stroke="black" points="2264.5,-180 2156.5,-180 2156.5,-144 2270.5,-144 2270.5,-174 2264.5,-180"/>
<polyline fill="none" stroke="black" points="2264.5,-180 2264.5,-174"/>
<polyline fill="none" stroke="black" points="2270.5,-174 2264.5,-174"/>
<text text-anchor="middle" x="2213.5" y="-158.3" font-family="Times New Roman,serif" font-size="14.00">var.droplet_name</text>
</g>
<!-- [root] digitalocean_droplet.vm&#45;front (expand)&#45;&gt;[root] var.droplet_name -->
<g id="edge22" class="edge">
<title>[root] digitalocean_droplet.vm&#45;front (expand)&#45;&gt;[root] var.droplet_name</title>
<path fill="none" stroke="black" d="M2034.17,-215.97C2068.11,-205.94 2111.19,-193.22 2146.61,-182.76"/>
<polygon fill="black" stroke="black" points="2147.79,-186.06 2156.39,-179.87 2145.81,-179.34 2147.79,-186.06"/>
</g>
<!-- [root] digitalocean_droplet.vm&#45;front (expand)&#45;&gt;[root] local.sizes (expand) -->
<g id="edge19" class="edge">
<title>[root] digitalocean_droplet.vm&#45;front (expand)&#45;&gt;[root] local.sizes (expand)</title>
<path fill="none" stroke="black" d="M1885.26,-217.14C1882.31,-216.74 1879.38,-216.36 1876.5,-216 1671.66,-190.68 1618.6,-203.11 1413.5,-180 1403.72,-178.9 1393.5,-177.6 1383.35,-176.22"/>
<polygon fill="black" stroke="black" points="1383.64,-172.73 1373.25,-174.82 1382.68,-179.66 1383.64,-172.73"/>
</g>
<!-- [root] digitalocean_firewall.back&#45;firewall (expand) -->
<g id="node6" class="node">
<title>[root] digitalocean_firewall.back&#45;firewall (expand)</title>
<polygon fill="none" stroke="black" points="1208,-324 1003,-324 1003,-288 1208,-288 1208,-324"/>
<text text-anchor="middle" x="1105.5" y="-302.3" font-family="Times New Roman,serif" font-size="14.00">digitalocean_firewall.back&#45;firewall</text>
</g>
<!-- [root] digitalocean_firewall.back&#45;firewall (expand)&#45;&gt;[root] digitalocean_droplet.vm&#45;backend (expand) -->
<g id="edge23" class="edge">
<title>[root] digitalocean_firewall.back&#45;firewall (expand)&#45;&gt;[root] digitalocean_droplet.vm&#45;backend (expand)</title>
<path fill="none" stroke="black" d="M1104.51,-287.7C1104.07,-279.98 1103.54,-270.71 1103.05,-262.11"/>
<polygon fill="black" stroke="black" points="1106.54,-261.89 1102.48,-252.1 1099.55,-262.29 1106.54,-261.89"/>
</g>
<!-- [root] var.do_fw_name_back -->
<g id="node17" class="node">
<title>[root] var.do_fw_name_back</title>
<polygon fill="none" stroke="black" points="1361.5,-252 1221.5,-252 1221.5,-216 1367.5,-216 1367.5,-246 1361.5,-252"/>
<polyline fill="none" stroke="black" points="1361.5,-252 1361.5,-246"/>
<polyline fill="none" stroke="black" points="1367.5,-246 1361.5,-246"/>
<text text-anchor="middle" x="1294.5" y="-230.3" font-family="Times New Roman,serif" font-size="14.00">var.do_fw_name_back</text>
</g>
<!-- [root] digitalocean_firewall.back&#45;firewall (expand)&#45;&gt;[root] var.do_fw_name_back -->
<g id="edge24" class="edge">
<title>[root] digitalocean_firewall.back&#45;firewall (expand)&#45;&gt;[root] var.do_fw_name_back</title>
<path fill="none" stroke="black" d="M1151.73,-287.88C1178.03,-278.14 1211.14,-265.87 1238.86,-255.61"/>
<polygon fill="black" stroke="black" points="1240.25,-258.82 1248.42,-252.07 1237.82,-252.26 1240.25,-258.82"/>
</g>
<!-- [root] digitalocean_firewall.front&#45;firewall (expand) -->
<g id="node7" class="node">
<title>[root] digitalocean_firewall.front&#45;firewall (expand)</title>
<polygon fill="none" stroke="black" points="1897,-324 1692,-324 1692,-288 1897,-288 1897,-324"/>
<text text-anchor="middle" x="1794.5" y="-302.3" font-family="Times New Roman,serif" font-size="14.00">digitalocean_firewall.front&#45;firewall</text>
</g>
<!-- [root] digitalocean_firewall.front&#45;firewall (expand)&#45;&gt;[root] digitalocean_droplet.vm&#45;front (expand) -->
<g id="edge25" class="edge">
<title>[root] digitalocean_firewall.front&#45;firewall (expand)&#45;&gt;[root] digitalocean_droplet.vm&#45;front (expand)</title>
<path fill="none" stroke="black" d="M1839.02,-287.88C1864.23,-278.18 1895.95,-265.98 1922.57,-255.74"/>
<polygon fill="black" stroke="black" points="1924.05,-258.92 1932.12,-252.07 1921.53,-252.39 1924.05,-258.92"/>
</g>
<!-- [root] var.do_fw_name_front -->
<g id="node18" class="node">
<title>[root] var.do_fw_name_front</title>
<polygon fill="none" stroke="black" points="1861.5,-252 1721.5,-252 1721.5,-216 1867.5,-216 1867.5,-246 1861.5,-252"/>
<polyline fill="none" stroke="black" points="1861.5,-252 1861.5,-246"/>
<polyline fill="none" stroke="black" points="1867.5,-246 1861.5,-246"/>
<text text-anchor="middle" x="1794.5" y="-230.3" font-family="Times New Roman,serif" font-size="14.00">var.do_fw_name_front</text>
</g>
<!-- [root] digitalocean_firewall.front&#45;firewall (expand)&#45;&gt;[root] var.do_fw_name_front -->
<g id="edge26" class="edge">
<title>[root] digitalocean_firewall.front&#45;firewall (expand)&#45;&gt;[root] var.do_fw_name_front</title>
<path fill="none" stroke="black" d="M1794.5,-287.7C1794.5,-279.98 1794.5,-270.71 1794.5,-262.11"/>
<polygon fill="black" stroke="black" points="1798,-262.1 1794.5,-252.1 1791,-262.1 1798,-262.1"/>
</g>
<!-- [root] digitalocean_loadbalancer.public (expand) -->
<g id="node8" class="node">
<title>[root] digitalocean_loadbalancer.public (expand)</title>
<polygon fill="none" stroke="black" points="1425,-324 1226,-324 1226,-288 1425,-288 1425,-324"/>
<text text-anchor="middle" x="1325.5" y="-302.3" font-family="Times New Roman,serif" font-size="14.00">digitalocean_loadbalancer.public</text>
</g>
<!-- [root] digitalocean_loadbalancer.public (expand)&#45;&gt;[root] digitalocean_droplet.vm&#45;front (expand) -->
<g id="edge27" class="edge">
<title>[root] digitalocean_loadbalancer.public (expand)&#45;&gt;[root] digitalocean_droplet.vm&#45;front (expand)</title>
<path fill="none" stroke="black" d="M1425.25,-289.14C1428.37,-288.74 1431.46,-288.36 1434.5,-288 1626.98,-265.18 1679.21,-276.16 1875.21,-252.1"/>
<polygon fill="black" stroke="black" points="1875.77,-255.55 1885.26,-250.85 1874.91,-248.61 1875.77,-255.55"/>
</g>
<!-- [root] var.do_loadbalance_name -->
<g id="node19" class="node">
<title>[root] var.do_loadbalance_name</title>
<polygon fill="none" stroke="black" points="1543,-252 1386,-252 1386,-216 1549,-216 1549,-246 1543,-252"/>
<polyline fill="none" stroke="black" points="1543,-252 1543,-246"/>
<polyline fill="none" stroke="black" points="1549,-246 1543,-246"/>
<text text-anchor="middle" x="1467.5" y="-230.3" font-family="Times New Roman,serif" font-size="14.00">var.do_loadbalance_name</text>
</g>
<!-- [root] digitalocean_loadbalancer.public (expand)&#45;&gt;[root] var.do_loadbalance_name -->
<g id="edge28" class="edge">
<title>[root] digitalocean_loadbalancer.public (expand)&#45;&gt;[root] var.do_loadbalance_name</title>
<path fill="none" stroke="black" d="M1360.24,-287.88C1379.32,-278.47 1403.18,-266.71 1423.55,-256.67"/>
<polygon fill="black" stroke="black" points="1425.21,-259.75 1432.63,-252.19 1422.11,-253.47 1425.21,-259.75"/>
</g>
<!-- [root] digitalocean_project.terraform_project (expand) -->
<g id="node9" class="node">
<title>[root] digitalocean_project.terraform_project (expand)</title>
<polygon fill="none" stroke="black" points="1674,-324 1443,-324 1443,-288 1674,-288 1674,-324"/>
<text text-anchor="middle" x="1558.5" y="-302.3" font-family="Times New Roman,serif" font-size="14.00">digitalocean_project.terraform_project</text>
</g>
<!-- [root] digitalocean_project.terraform_project (expand)&#45;&gt;[root] digitalocean_droplet.vm&#45;front (expand) -->
<g id="edge29" class="edge">
<title>[root] digitalocean_project.terraform_project (expand)&#45;&gt;[root] digitalocean_droplet.vm&#45;front (expand)</title>
<path fill="none" stroke="black" d="M1661.27,-287.96C1721,-278.03 1797.99,-265.2 1875.53,-252.16"/>
<polygon fill="black" stroke="black" points="1876.2,-255.6 1885.48,-250.49 1875.04,-248.69 1876.2,-255.6"/>
</g>
<!-- [root] var.do_project_name -->
<g id="node20" class="node">
<title>[root] var.do_project_name</title>
<polygon fill="none" stroke="black" points="1697.5,-252 1567.5,-252 1567.5,-216 1703.5,-216 1703.5,-246 1697.5,-252"/>
<polyline fill="none" stroke="black" points="1697.5,-252 1697.5,-246"/>
<polyline fill="none" stroke="black" points="1703.5,-246 1697.5,-246"/>
<text text-anchor="middle" x="1635.5" y="-230.3" font-family="Times New Roman,serif" font-size="14.00">var.do_project_name</text>
</g>
<!-- [root] digitalocean_project.terraform_project (expand)&#45;&gt;[root] var.do_project_name -->
<g id="edge30" class="edge">
<title>[root] digitalocean_project.terraform_project (expand)&#45;&gt;[root] var.do_project_name</title>
<path fill="none" stroke="black" d="M1577.53,-287.7C1587.04,-279.05 1598.71,-268.45 1609.07,-259.03"/>
<polygon fill="black" stroke="black" points="1611.64,-261.42 1616.69,-252.1 1606.93,-256.24 1611.64,-261.42"/>
</g>
<!-- [root] digitalocean_reserved_ip.vm&#45;01_desafio03 (expand) -->
<g id="node10" class="node">
<title>[root] digitalocean_reserved_ip.vm&#45;01_desafio03 (expand)</title>
<polygon fill="none" stroke="black" points="842.5,-180 586.5,-180 586.5,-144 842.5,-144 842.5,-180"/>
<text text-anchor="middle" x="714.5" y="-158.3" font-family="Times New Roman,serif" font-size="14.00">digitalocean_reserved_ip.vm&#45;01_desafio03</text>
</g>
<!-- [root] digitalocean_reserved_ip.vm&#45;01_desafio03 (expand)&#45;&gt;[root] provider[&quot;registry.terraform.io/digitalocean/digitalocean&quot;] -->
<g id="edge32" class="edge">
<title>[root] digitalocean_reserved_ip.vm&#45;01_desafio03 (expand)&#45;&gt;[root] provider[&quot;registry.terraform.io/digitalocean/digitalocean&quot;]</title>
<path fill="none" stroke="black" d="M842.82,-144.84C845.74,-144.55 848.64,-144.27 851.5,-144 979.02,-132.07 1326.01,-111.59 1531.62,-99.89"/>
<polygon fill="black" stroke="black" points="1531.82,-103.38 1541.61,-99.32 1531.42,-96.39 1531.82,-103.38"/>
</g>
<!-- [root] digitalocean_reserved_ip.vm&#45;01_desafio03 (expand)&#45;&gt;[root] local.regions (expand) -->
<g id="edge31" class="edge">
<title>[root] digitalocean_reserved_ip.vm&#45;01_desafio03 (expand)&#45;&gt;[root] local.regions (expand)</title>
<path fill="none" stroke="black" d="M739.45,-143.88C752.74,-134.76 769.25,-123.43 783.57,-113.6"/>
<polygon fill="black" stroke="black" points="785.89,-116.25 792.16,-107.71 781.93,-110.48 785.89,-116.25"/>
</g>
<!-- [root] digitalocean_tag.foobar (expand)&#45;&gt;[root] provider[&quot;registry.terraform.io/digitalocean/digitalocean&quot;] -->
<g id="edge33" class="edge">
<title>[root] digitalocean_tag.foobar (expand)&#45;&gt;[root] provider[&quot;registry.terraform.io/digitalocean/digitalocean&quot;]</title>
<path fill="none" stroke="black" d="M1990.3,-145.72C1987.33,-145.13 1984.39,-144.56 1981.5,-144 1911.32,-130.42 1831.42,-115.94 1773.13,-105.55"/>
<polygon fill="black" stroke="black" points="1773.69,-102.1 1763.23,-103.79 1772.47,-108.99 1773.69,-102.1"/>
</g>
<!-- [root] digitalocean_vpc.vpc_desafio (expand)&#45;&gt;[root] provider[&quot;registry.terraform.io/digitalocean/digitalocean&quot;] -->
<g id="edge35" class="edge">
<title>[root] digitalocean_vpc.vpc_desafio (expand)&#45;&gt;[root] provider[&quot;registry.terraform.io/digitalocean/digitalocean&quot;]</title>
<path fill="none" stroke="black" d="M1557.55,-143.88C1583.57,-133.53 1616.74,-120.34 1643.44,-109.72"/>
<polygon fill="black" stroke="black" points="1644.97,-112.88 1652.96,-105.93 1642.38,-106.37 1644.97,-112.88"/>
</g>
<!-- [root] var.do_vpc_name -->
<g id="node22" class="node">
<title>[root] var.do_vpc_name</title>
<polygon fill="none" stroke="black" points="1358.5,-108 1246.5,-108 1246.5,-72 1364.5,-72 1364.5,-102 1358.5,-108"/>
<polyline fill="none" stroke="black" points="1358.5,-108 1358.5,-102"/>
<polyline fill="none" stroke="black" points="1364.5,-102 1358.5,-102"/>
<text text-anchor="middle" x="1305.5" y="-86.3" font-family="Times New Roman,serif" font-size="14.00">var.do_vpc_name</text>
</g>
<!-- [root] digitalocean_vpc.vpc_desafio (expand)&#45;&gt;[root] var.do_vpc_name -->
<g id="edge36" class="edge">
<title>[root] digitalocean_vpc.vpc_desafio (expand)&#45;&gt;[root] var.do_vpc_name</title>
<path fill="none" stroke="black" d="M1463.64,-143.97C1434.31,-134.14 1397.25,-121.73 1366.38,-111.39"/>
<polygon fill="black" stroke="black" points="1367.18,-107.97 1356.59,-108.11 1364.96,-114.61 1367.18,-107.97"/>
</g>
<!-- [root] digitalocean_vpc.vpc_desafio (expand)&#45;&gt;[root] local.regions (expand) -->
<g id="edge34" class="edge">
<title>[root] digitalocean_vpc.vpc_desafio (expand)&#45;&gt;[root] local.regions (expand)</title>
<path fill="none" stroke="black" d="M1422.35,-145.18C1419.36,-144.77 1416.41,-144.37 1413.5,-144 1245.9,-122.49 1050.7,-106.94 930.36,-98.45"/>
<polygon fill="black" stroke="black" points="930.26,-94.93 920.03,-97.72 929.77,-101.92 930.26,-94.93"/>
</g>
<!-- [root] var.do_token -->
<g id="node21" class="node">
<title>[root] var.do_token</title>
<polygon fill="none" stroke="black" points="1730,-36 1645,-36 1645,0 1736,0 1736,-30 1730,-36"/>
<polyline fill="none" stroke="black" points="1730,-36 1730,-30"/>
<polyline fill="none" stroke="black" points="1736,-30 1730,-30"/>
<text text-anchor="middle" x="1690.5" y="-14.3" font-family="Times New Roman,serif" font-size="14.00">var.do_token</text>
</g>
<!-- [root] provider[&quot;registry.terraform.io/digitalocean/digitalocean&quot;]&#45;&gt;[root] var.do_token -->
<g id="edge47" class="edge">
<title>[root] provider[&quot;registry.terraform.io/digitalocean/digitalocean&quot;]&#45;&gt;[root] var.do_token</title>
<path fill="none" stroke="black" d="M1690.5,-71.7C1690.5,-63.98 1690.5,-54.71 1690.5,-46.11"/>
<polygon fill="black" stroke="black" points="1694,-46.1 1690.5,-36.1 1687,-46.1 1694,-46.1"/>
</g>
<!-- [root] var.description -->
<g id="node14" class="node">
<title>[root] var.description</title>
<polygon fill="none" stroke="black" points="2656.5,-396 2562.5,-396 2562.5,-360 2662.5,-360 2662.5,-390 2656.5,-396"/>
<polyline fill="none" stroke="black" points="2656.5,-396 2656.5,-390"/>
<polyline fill="none" stroke="black" points="2662.5,-390 2656.5,-390"/>
<text text-anchor="middle" x="2612.5" y="-374.3" font-family="Times New Roman,serif" font-size="14.00">var.description</text>
</g>
<!-- [root] var.environment -->
<g id="node26" class="node">
<title>[root] var.environment</title>
<polygon fill="none" stroke="black" points="2780.5,-396 2680.5,-396 2680.5,-360 2786.5,-360 2786.5,-390 2780.5,-396"/>
<polyline fill="none" stroke="black" points="2780.5,-396 2780.5,-390"/>
<polyline fill="none" stroke="black" points="2786.5,-390 2780.5,-390"/>
<text text-anchor="middle" x="2733.5" y="-374.3" font-family="Times New Roman,serif" font-size="14.00">var.environment</text>
</g>
<!-- [root] var.pg_db_cluster_node_count -->
<g id="node29" class="node">
<title>[root] var.pg_db_cluster_node_count</title>
<polygon fill="none" stroke="black" points="2992,-396 2805,-396 2805,-360 2998,-360 2998,-390 2992,-396"/>
<polyline fill="none" stroke="black" points="2992,-396 2992,-390"/>
<polyline fill="none" stroke="black" points="2998,-390 2992,-390"/>
<text text-anchor="middle" x="2901.5" y="-374.3" font-family="Times New Roman,serif" font-size="14.00">var.pg_db_cluster_node_count</text>
</g>
<!-- [root] var.purpose -->
<g id="node32" class="node">
<title>[root] var.purpose</title>
<polygon fill="none" stroke="black" points="3093,-396 3016,-396 3016,-360 3099,-360 3099,-390 3093,-396"/>
<polyline fill="none" stroke="black" points="3093,-396 3093,-390"/>
<polyline fill="none" stroke="black" points="3099,-390 3093,-390"/>
<text text-anchor="middle" x="3057.5" y="-374.3" font-family="Times New Roman,serif" font-size="14.00">var.purpose</text>
</g>
<!-- [root] output.vm&#45;01_droplet_private_ip (expand) -->
<g id="node35" class="node">
<title>[root] output.vm&#45;01_droplet_private_ip (expand)</title>
<ellipse fill="none" stroke="black" cx="2104.5" cy="-306" rx="189.27" ry="18"/>
<text text-anchor="middle" x="2104.5" y="-302.3" font-family="Times New Roman,serif" font-size="14.00">[root] output.vm&#45;01_droplet_private_ip (expand)</text>
</g>
<!-- [root] output.vm&#45;01_droplet_private_ip (expand)&#45;&gt;[root] digitalocean_droplet.vm&#45;front (expand) -->
<g id="edge37" class="edge">
<title>[root] output.vm&#45;01_droplet_private_ip (expand)&#45;&gt;[root] digitalocean_droplet.vm&#45;front (expand)</title>
<path fill="none" stroke="black" d="M2073.84,-288.23C2056.68,-278.85 2035.08,-267.04 2016.59,-256.93"/>
<polygon fill="black" stroke="black" points="2018.25,-253.84 2007.8,-252.12 2014.89,-259.99 2018.25,-253.84"/>
</g>
<!-- [root] output.vm&#45;01_droplet_public_ip (expand) -->
<g id="node36" class="node">
<title>[root] output.vm&#45;01_droplet_public_ip (expand)</title>
<ellipse fill="none" stroke="black" cx="2498.5" cy="-306" rx="187.37" ry="18"/>
<text text-anchor="middle" x="2498.5" y="-302.3" font-family="Times New Roman,serif" font-size="14.00">[root] output.vm&#45;01_droplet_public_ip (expand)</text>
</g>
<!-- [root] output.vm&#45;01_droplet_public_ip (expand)&#45;&gt;[root] digitalocean_droplet.vm&#45;front (expand) -->
<g id="edge38" class="edge">
<title>[root] output.vm&#45;01_droplet_public_ip (expand)&#45;&gt;[root] digitalocean_droplet.vm&#45;front (expand)</title>
<path fill="none" stroke="black" d="M2394.12,-291C2302.07,-278.66 2168.76,-260.78 2077.68,-248.57"/>
<polygon fill="black" stroke="black" points="2078,-245.08 2067.62,-247.22 2077.07,-252.02 2078,-245.08"/>
</g>
<!-- [root] output.vm&#45;02_droplet_private_ip (expand) -->
<g id="node37" class="node">
<title>[root] output.vm&#45;02_droplet_private_ip (expand)</title>
<ellipse fill="none" stroke="black" cx="933.5" cy="-378" rx="189.27" ry="18"/>
<text text-anchor="middle" x="933.5" y="-374.3" font-family="Times New Roman,serif" font-size="14.00">[root] output.vm&#45;02_droplet_private_ip (expand)</text>
</g>
<!-- [root] output.vm&#45;02_droplet_private_ip (expand)&#45;&gt;[root] digitalocean_droplet.vm&#45;backend (expand) -->
<g id="edge39" class="edge">
<title>[root] output.vm&#45;02_droplet_private_ip (expand)&#45;&gt;[root] digitalocean_droplet.vm&#45;backend (expand)</title>
<path fill="none" stroke="black" d="M941.74,-359.99C951.89,-340.51 970.74,-308.63 994.5,-288 1009.23,-275.21 1027.58,-264.67 1044.91,-256.44"/>
<polygon fill="black" stroke="black" points="1046.75,-259.45 1054.4,-252.11 1043.85,-253.08 1046.75,-259.45"/>
</g>
<!-- [root] output.vm&#45;02_droplet_public_ip (expand) -->
<g id="node38" class="node">
<title>[root] output.vm&#45;02_droplet_public_ip (expand)</title>
<ellipse fill="none" stroke="black" cx="2357.5" cy="-378" rx="187.37" ry="18"/>
<text text-anchor="middle" x="2357.5" y="-374.3" font-family="Times New Roman,serif" font-size="14.00">[root] output.vm&#45;02_droplet_public_ip (expand)</text>
</g>
<!-- [root] output.vm&#45;02_droplet_public_ip (expand)&#45;&gt;[root] digitalocean_droplet.vm&#45;front (expand) -->
<g id="edge40" class="edge">
<title>[root] output.vm&#45;02_droplet_public_ip (expand)&#45;&gt;[root] digitalocean_droplet.vm&#45;front (expand)</title>
<path fill="none" stroke="black" d="M2485.69,-364.85C2575.02,-355.05 2680.6,-340.26 2694.5,-324 2704.9,-311.84 2705.39,-299.72 2694.5,-288 2653.44,-243.8 2265.91,-236.12 2077.88,-235.02"/>
<polygon fill="black" stroke="black" points="2077.72,-231.52 2067.71,-234.97 2077.69,-238.52 2077.72,-231.52"/>
</g>
<!-- [root] provider[&quot;registry.terraform.io/digitalocean/digitalocean&quot;] (close) -->
<g id="node39" class="node">
<title>[root] provider[&quot;registry.terraform.io/digitalocean/digitalocean&quot;] (close)</title>
<ellipse fill="none" stroke="black" cx="1409.5" cy="-378" rx="268.35" ry="18"/>
<text text-anchor="middle" x="1409.5" y="-374.3" font-family="Times New Roman,serif" font-size="14.00">[root] provider[&quot;registry.terraform.io/digitalocean/digitalocean&quot;] (close)</text>
</g>
<!-- [root] provider[&quot;registry.terraform.io/digitalocean/digitalocean&quot;] (close)&#45;&gt;[root] digitalocean_database_firewall.database&#45;fw (expand) -->
<g id="edge41" class="edge">
<title>[root] provider[&quot;registry.terraform.io/digitalocean/digitalocean&quot;] (close)&#45;&gt;[root] digitalocean_database_firewall.database&#45;fw (expand)</title>
<path fill="none" stroke="black" d="M1276.8,-362.33C1170.81,-350.6 1022.73,-334.23 915.19,-322.34"/>
<polygon fill="black" stroke="black" points="915.56,-318.86 905.24,-321.24 914.79,-325.81 915.56,-318.86"/>
</g>
<!-- [root] provider[&quot;registry.terraform.io/digitalocean/digitalocean&quot;] (close)&#45;&gt;[root] digitalocean_firewall.back&#45;firewall (expand) -->
<g id="edge42" class="edge">
<title>[root] provider[&quot;registry.terraform.io/digitalocean/digitalocean&quot;] (close)&#45;&gt;[root] digitalocean_firewall.back&#45;firewall (expand)</title>
<path fill="none" stroke="black" d="M1338.23,-360.59C1293.66,-350.33 1236.05,-337.06 1189.3,-326.3"/>
<polygon fill="black" stroke="black" points="1190.03,-322.87 1179.5,-324.04 1188.46,-329.69 1190.03,-322.87"/>
</g>
<!-- [root] provider[&quot;registry.terraform.io/digitalocean/digitalocean&quot;] (close)&#45;&gt;[root] digitalocean_firewall.front&#45;firewall (expand) -->
<g id="edge43" class="edge">
<title>[root] provider[&quot;registry.terraform.io/digitalocean/digitalocean&quot;] (close)&#45;&gt;[root] digitalocean_firewall.front&#45;firewall (expand)</title>
<path fill="none" stroke="black" d="M1497.83,-360.94C1555.34,-350.48 1630.61,-336.8 1690.94,-325.83"/>
<polygon fill="black" stroke="black" points="1691.66,-329.26 1700.88,-324.02 1690.41,-322.37 1691.66,-329.26"/>
</g>
<!-- [root] provider[&quot;registry.terraform.io/digitalocean/digitalocean&quot;] (close)&#45;&gt;[root] digitalocean_loadbalancer.public (expand) -->
<g id="edge44" class="edge">
<title>[root] provider[&quot;registry.terraform.io/digitalocean/digitalocean&quot;] (close)&#45;&gt;[root] digitalocean_loadbalancer.public (expand)</title>
<path fill="none" stroke="black" d="M1388.74,-359.7C1378.26,-350.97 1365.39,-340.24 1354,-330.75"/>
<polygon fill="black" stroke="black" points="1355.95,-327.82 1346.03,-324.1 1351.47,-333.19 1355.95,-327.82"/>
</g>
<!-- [root] provider[&quot;registry.terraform.io/digitalocean/digitalocean&quot;] (close)&#45;&gt;[root] digitalocean_project.terraform_project (expand) -->
<g id="edge45" class="edge">
<title>[root] provider[&quot;registry.terraform.io/digitalocean/digitalocean&quot;] (close)&#45;&gt;[root] digitalocean_project.terraform_project (expand)</title>
<path fill="none" stroke="black" d="M1445.57,-360.05C1465.83,-350.54 1491.3,-338.57 1512.93,-328.41"/>
<polygon fill="black" stroke="black" points="1514.68,-331.45 1522.25,-324.03 1511.71,-325.12 1514.68,-331.45"/>
</g>
<!-- [root] provider[&quot;registry.terraform.io/digitalocean/digitalocean&quot;] (close)&#45;&gt;[root] digitalocean_reserved_ip.vm&#45;01_desafio03 (expand) -->
<g id="edge46" class="edge">
<title>[root] provider[&quot;registry.terraform.io/digitalocean/digitalocean&quot;] (close)&#45;&gt;[root] digitalocean_reserved_ip.vm&#45;01_desafio03 (expand)</title>
<path fill="none" stroke="black" d="M1201.4,-366.61C1134.11,-359 1059.99,-346.02 994.5,-324 943.74,-306.93 812.84,-225.7 749.65,-185.56"/>
<polygon fill="black" stroke="black" points="751.52,-182.59 741.2,-180.18 747.76,-188.5 751.52,-182.59"/>
</g>
<!-- [root] root -->
<g id="node40" class="node">
<title>[root] root</title>
<ellipse fill="none" stroke="black" cx="2357.5" cy="-450" rx="49.29" ry="18"/>
<text text-anchor="middle" x="2357.5" y="-446.3" font-family="Times New Roman,serif" font-size="14.00">[root] root</text>
</g>
<!-- [root] root&#45;&gt;[root] var.description -->
<g id="edge53" class="edge">
<title>[root] root&#45;&gt;[root] var.description</title>
<path fill="none" stroke="black" d="M2396.23,-438.73C2433.79,-428.72 2492.65,-412.92 2552.67,-396.21"/>
<polygon fill="black" stroke="black" points="2553.61,-399.58 2562.3,-393.52 2551.73,-392.84 2553.61,-399.58"/>
</g>
<!-- [root] root&#45;&gt;[root] var.environment -->
<g id="edge54" class="edge">
<title>[root] root&#45;&gt;[root] var.environment</title>
<path fill="none" stroke="black" d="M2403.01,-442.78C2462.37,-434.35 2569.57,-418.03 2670.43,-396.12"/>
<polygon fill="black" stroke="black" points="2671.47,-399.47 2680.49,-393.91 2669.97,-392.64 2671.47,-399.47"/>
</g>
<!-- [root] root&#45;&gt;[root] var.pg_db_cluster_node_count -->
<g id="edge55" class="edge">
<title>[root] root&#45;&gt;[root] var.pg_db_cluster_node_count</title>
<path fill="none" stroke="black" d="M2404.25,-443.94C2482.63,-435.33 2645.74,-416.86 2794.53,-396.11"/>
<polygon fill="black" stroke="black" points="2795.34,-399.53 2804.76,-394.67 2794.37,-392.59 2795.34,-399.53"/>
</g>
<!-- [root] root&#45;&gt;[root] var.purpose -->
<g id="edge56" class="edge">
<title>[root] root&#45;&gt;[root] var.purpose</title>
<path fill="none" stroke="black" d="M2407.01,-449.09C2514.88,-448.42 2779,-441.96 3005.88,-396.05"/>
<polygon fill="black" stroke="black" points="3006.88,-399.42 3015.97,-393.97 3005.47,-392.56 3006.88,-399.42"/>
</g>
<!-- [root] root&#45;&gt;[root] output.vm&#45;01_droplet_private_ip (expand) -->
<g id="edge48" class="edge">
<title>[root] root&#45;&gt;[root] output.vm&#45;01_droplet_private_ip (expand)</title>
<path fill="none" stroke="black" d="M2308.1,-448.09C2261.87,-444.79 2193.26,-433.3 2147.5,-396 2128.25,-380.3 2117.02,-353.9 2110.89,-333.92"/>
<polygon fill="black" stroke="black" points="2114.22,-332.82 2108.14,-324.14 2107.48,-334.72 2114.22,-332.82"/>
</g>
<!-- [root] root&#45;&gt;[root] output.vm&#45;01_droplet_public_ip (expand) -->
<g id="edge49" class="edge">
<title>[root] root&#45;&gt;[root] output.vm&#45;01_droplet_public_ip (expand)</title>
<path fill="none" stroke="black" d="M2310.27,-444.39C2238.94,-435.63 2116.57,-412.55 2161.5,-360 2174.89,-344.34 2273.27,-330.05 2360.31,-320.26"/>
<polygon fill="black" stroke="black" points="2360.76,-323.73 2370.31,-319.15 2359.99,-316.78 2360.76,-323.73"/>
</g>
<!-- [root] root&#45;&gt;[root] output.vm&#45;02_droplet_private_ip (expand) -->
<g id="edge50" class="edge">
<title>[root] root&#45;&gt;[root] output.vm&#45;02_droplet_private_ip (expand)</title>
<path fill="none" stroke="black" d="M2308.45,-447.62C2142.84,-442.79 1589.23,-425.38 1132.5,-396 1113.79,-394.8 1094.1,-393.34 1074.69,-391.8"/>
<polygon fill="black" stroke="black" points="1074.82,-388.3 1064.57,-390.98 1074.26,-395.28 1074.82,-388.3"/>
</g>
<!-- [root] root&#45;&gt;[root] output.vm&#45;02_droplet_public_ip (expand) -->
<g id="edge51" class="edge">
<title>[root] root&#45;&gt;[root] output.vm&#45;02_droplet_public_ip (expand)</title>
<path fill="none" stroke="black" d="M2357.5,-431.7C2357.5,-423.98 2357.5,-414.71 2357.5,-406.11"/>
<polygon fill="black" stroke="black" points="2361,-406.1 2357.5,-396.1 2354,-406.1 2361,-406.1"/>
</g>
<!-- [root] root&#45;&gt;[root] provider[&quot;registry.terraform.io/digitalocean/digitalocean&quot;] (close) -->
<g id="edge52" class="edge">
<title>[root] root&#45;&gt;[root] provider[&quot;registry.terraform.io/digitalocean/digitalocean&quot;] (close)</title>
<path fill="none" stroke="black" d="M2309.51,-445.46C2179.68,-435.87 1816.27,-409.04 1592.94,-392.55"/>
<polygon fill="black" stroke="black" points="1592.98,-389.04 1582.75,-391.79 1592.46,-396.02 1592.98,-389.04"/>
</g>
</g>
</svg>
